<?xml version="1.0" encoding="UTF-8"?>
<!DOCTYPE svg PUBLIC "-//W3C//DTD SVG 1.1//EN" "http://www.w3.org/Graphics/SVG/1.1/DTD/svg11.dtd">
<svg xmlns="http://www.w3.org/2000/svg" version="1.1" width="450px" height="450px" style="shape-rendering:geometricPrecision; text-rendering:geometricPrecision; image-rendering:optimizeQuality; fill-rule:evenodd; clip-rule:evenodd" xmlns:xlink="http://www.w3.org/1999/xlink">
<g><path style="opacity:0.004" fill="#cccccc" d="M 223.5,17.5 C 224.251,16.4265 225.251,16.2599 226.5,17C 225.552,17.4828 224.552,17.6495 223.5,17.5 Z"/></g>
<g><path style="opacity:0.008" fill="#e3e3e4" d="M 204.5,18.5 C 207.976,17.3567 211.642,17.1901 215.5,18C 211.848,18.4986 208.182,18.6653 204.5,18.5 Z"/></g>
<g><path style="opacity:0.008" fill="#e3e3e3" d="M 233.5,18.5 C 236.976,17.3567 240.642,17.1901 244.5,18C 240.848,18.4986 237.182,18.6653 233.5,18.5 Z"/></g>
<g><path style="opacity:0.008" fill="#e3e3e3" d="M 196.5,19.5 C 198.288,18.3775 200.288,18.2109 202.5,19C 200.527,19.4955 198.527,19.6621 196.5,19.5 Z"/></g>
<g><path style="opacity:0.008" fill="#e1e1e1" d="M 246.5,19.5 C 248.288,18.3775 250.288,18.2109 252.5,19C 250.527,19.4955 248.527,19.6621 246.5,19.5 Z"/></g>
<g><path style="opacity:0.006" fill="#ebebeb" d="M 190.5,20.5 C 191.601,19.4017 192.934,19.235 194.5,20C 193.207,20.49 191.873,20.6567 190.5,20.5 Z"/></g>
<g><path style="opacity:0.004" fill="#d5d4d4" d="M 254.5,20.5 C 255.601,19.4017 256.934,19.235 258.5,20C 257.207,20.49 255.873,20.6567 254.5,20.5 Z"/></g>
<g><path style="opacity:0.008" fill="#d6d7d6" d="M 184.5,21.5 C 185.601,20.4017 186.934,20.235 188.5,21C 187.207,21.49 185.873,21.6567 184.5,21.5 Z"/></g>
<g><path style="opacity:0.762" fill="#858585" d="M 217.5,19.5 C 222.167,18.1667 226.833,18.1667 231.5,19.5C 230.448,19.3505 229.448,19.5172 228.5,20C 231.036,20.1862 233.369,20.6862 235.5,21.5C 226.833,21.5 218.167,21.5 209.5,21.5C 212.977,20.6773 216.644,20.1773 220.5,20C 219.552,19.5172 218.552,19.3505 217.5,19.5 Z"/></g>
<g><path style="opacity:0.776" fill="#cecece" d="M 231.5,19.5 C 238.191,19.4542 244.857,19.7875 251.5,20.5C 248.375,21.4794 245.042,21.8128 241.5,21.5C 239.5,21.5 237.5,21.5 235.5,21.5C 233.369,20.6862 231.036,20.1862 228.5,20C 229.448,19.5172 230.448,19.3505 231.5,19.5 Z"/></g>
<g><path style="opacity:0.004" fill="#d2d2d2" d="M 260.5,21.5 C 261.601,20.4017 262.934,20.235 264.5,21C 263.207,21.49 261.873,21.6567 260.5,21.5 Z"/></g>
<g><path style="opacity:0.008" fill="#d4d5d5" d="M 183.5,22.5 C 182.127,22.6567 180.793,22.49 179.5,22C 181.066,21.235 182.399,21.4017 183.5,22.5 Z"/></g>
<g><path style="opacity:0.008" fill="#d7d7d7" d="M 265.5,22.5 C 266.601,21.4017 267.934,21.235 269.5,22C 268.207,22.49 266.873,22.6567 265.5,22.5 Z"/></g>
<g><path style="opacity:0.008" fill="#d6d6d6" d="M 175.5,23.5 C 176.251,22.4265 177.251,22.2599 178.5,23C 177.552,23.4828 176.552,23.6495 175.5,23.5 Z"/></g>
<g><path style="opacity:0.742" fill="#030303" d="M 209.5,21.5 C 218.167,21.5 226.833,21.5 235.5,21.5C 237.5,21.5 239.5,21.5 241.5,21.5C 265.042,23.8144 287.709,29.8144 309.5,39.5C 324.353,46.8268 338.353,55.6602 351.5,66C 353.635,66.6053 353.969,66.1053 352.5,64.5C 354.411,65.075 356.078,66.075 357.5,67.5C 364.807,74.4723 372.14,81.4723 379.5,88.5C 380.419,91.0892 382.086,93.0892 384.5,94.5C 386.458,97.7915 388.791,100.792 391.5,103.5C 392.34,105.853 393.674,107.853 395.5,109.5C 396.167,111.167 396.833,112.833 397.5,114.5C 397.427,116.027 398.094,117.027 399.5,117.5C 399.833,117.5 400.167,117.5 400.5,117.5C 400.5,118.167 400.5,118.833 400.5,119.5C 400.427,121.027 401.094,122.027 402.5,122.5C 403.167,123.167 403.833,123.833 404.5,124.5C 404.5,125.167 404.5,125.833 404.5,126.5C 404.427,128.027 405.094,129.027 406.5,129.5C 406.833,129.5 407.167,129.5 407.5,129.5C 407.328,130.492 407.662,131.158 408.5,131.5C 408.5,132.167 408.5,132.833 408.5,133.5C 408.157,135.483 408.824,136.817 410.5,137.5C 410.12,139.698 410.787,141.365 412.5,142.5C 414.923,151.108 417.923,159.441 421.5,167.5C 421.41,170.152 422.076,172.485 423.5,174.5C 424.671,184.196 426.171,193.862 428,203.5C 428.5,214.161 428.667,224.828 428.5,235.5C 428.233,241.838 427.9,248.171 427.5,254.5C 427.5,254.833 427.5,255.167 427.5,255.5C 426.883,255.611 426.383,255.944 426,256.5C 424.137,267.248 421.971,277.914 419.5,288.5C 416.676,292.63 415.009,297.297 414.5,302.5C 412.461,303.911 411.461,305.911 411.5,308.5C 408.71,312.416 406.71,316.749 405.5,321.5C 404.094,321.973 403.427,322.973 403.5,324.5C 403.5,325.167 403.5,325.833 403.5,326.5C 402.662,326.842 402.328,327.508 402.5,328.5C 401.662,328.842 401.328,329.508 401.5,330.5C 400.833,330.5 400.5,330.833 400.5,331.5C 399.662,331.842 399.328,332.508 399.5,333.5C 398.833,333.5 398.5,333.833 398.5,334.5C 397.662,334.842 397.328,335.508 397.5,336.5C 396.094,336.973 395.427,337.973 395.5,339.5C 394.094,339.973 393.427,340.973 393.5,342.5C 392.833,342.5 392.5,342.833 392.5,343.5C 391.662,343.842 391.328,344.508 391.5,345.5C 390.833,345.5 390.5,345.833 390.5,346.5C 389.094,346.973 388.427,347.973 388.5,349.5C 387.833,349.5 387.5,349.833 387.5,350.5C 386.833,350.5 386.5,350.833 386.5,351.5C 385.662,351.842 385.328,352.508 385.5,353.5C 384.833,353.5 384.5,353.833 384.5,354.5C 383.833,354.5 383.5,354.833 383.5,355.5C 382.833,355.5 382.5,355.833 382.5,356.5C 380.738,357.262 379.738,358.596 379.5,360.5C 378.833,360.5 378.5,360.833 378.5,361.5C 377.833,361.5 377.5,361.833 377.5,362.5C 376.833,362.5 376.5,362.833 376.5,363.5C 375.833,363.5 375.5,363.833 375.5,364.5C 374.833,364.5 374.5,364.833 374.5,365.5C 373.833,365.5 373.5,365.833 373.5,366.5C 372.833,366.5 372.5,366.833 372.5,367.5C 370.5,368.833 368.833,370.5 367.5,372.5C 366.833,372.5 366.5,372.833 366.5,373.5C 365.833,373.5 365.5,373.833 365.5,374.5C 364.833,374.5 364.5,374.833 364.5,375.5C 363.833,375.5 363.5,375.833 363.5,376.5C 362.833,376.5 362.5,376.833 362.5,377.5C 361.833,377.5 361.5,377.833 361.5,378.5C 360.833,378.5 360.5,378.833 360.5,379.5C 358.596,379.738 357.262,380.738 356.5,382.5C 355.833,382.5 355.5,382.833 355.5,383.5C 353.246,384.124 351.579,385.457 350.5,387.5C 349.833,387.5 349.5,387.833 349.5,388.5C 347.973,388.427 346.973,389.094 346.5,390.5C 345.833,390.5 345.5,390.833 345.5,391.5C 344.508,391.328 343.842,391.662 343.5,392.5C 342.833,392.5 342.5,392.833 342.5,393.5C 340.973,393.427 339.973,394.094 339.5,395.5C 337.973,395.427 336.973,396.094 336.5,397.5C 335.508,397.328 334.842,397.662 334.5,398.5C 333.833,398.5 333.5,398.833 333.5,399.5C 332.508,399.328 331.842,399.662 331.5,400.5C 330.833,400.5 330.5,400.833 330.5,401.5C 329.833,401.5 329.167,401.5 328.5,401.5C 329.463,400.637 329.463,399.97 328.5,399.5C 282.954,425.536 234.287,433.869 182.5,424.5C 168.794,420.763 155.294,416.097 142,410.5C 141.235,410.57 140.735,410.903 140.5,411.5C 139.5,411.5 138.5,411.5 137.5,411.5C 137.158,410.662 136.492,410.328 135.5,410.5C 135.158,409.662 134.492,409.328 133.5,409.5C 133.158,408.662 132.492,408.328 131.5,408.5C 131.158,407.662 130.492,407.328 129.5,407.5C 129.158,406.662 128.492,406.328 127.5,406.5C 127.027,405.094 126.027,404.427 124.5,404.5C 122.337,402.917 120.004,401.584 117.5,400.5C 117.158,399.662 116.492,399.328 115.5,399.5C 113.853,397.674 111.853,396.34 109.5,395.5C 107.853,393.674 105.853,392.34 103.5,391.5C 100.792,388.791 97.7915,386.458 94.5,384.5C 93.0892,382.086 91.0892,380.419 88.5,379.5C 81.4723,372.14 74.4723,364.807 67.5,357.5C 65.823,355.46 64.1563,353.46 62.5,351.5C 60.8532,348.527 58.8532,345.86 56.5,343.5C 54.1923,339.205 51.5256,335.205 48.5,331.5C 48.573,329.973 47.9063,328.973 46.5,328.5C 46.6716,327.508 46.3382,326.842 45.5,326.5C 45.2503,324.326 44.2503,322.659 42.5,321.5C 42.6716,320.508 42.3382,319.842 41.5,319.5C 41.6716,318.508 41.3382,317.842 40.5,317.5C 40.6716,316.508 40.3382,315.842 39.5,315.5C 39.6716,314.508 39.3382,313.842 38.5,313.5C 38.6716,312.508 38.3382,311.842 37.5,311.5C 37.7373,310.209 37.404,309.209 36.5,308.5C 35.5371,305.256 34.2038,302.256 32.5,299.5C 32.7373,298.209 32.404,297.209 31.5,296.5C 31.2041,294.597 30.5375,292.93 29.5,291.5C 29.7373,290.209 29.404,289.209 28.5,288.5C 28.7373,287.209 28.404,286.209 27.5,285.5C 27.7678,283.901 27.4345,282.568 26.5,281.5C 26.5905,278.848 25.9238,276.515 24.5,274.5C 24.5,273.167 24.5,271.833 24.5,270.5C 25.2679,271.263 25.7679,272.263 26,273.5C 24.7858,263.203 23.4525,252.87 22,242.5C 19.7579,211.743 23.9246,181.91 34.5,153C 34.3333,152.5 34.1667,152 34,151.5C 33.3918,153.066 32.5585,154.4 31.5,155.5C 31.5,154.5 31.5,153.5 31.5,152.5C 34.0757,147.005 36.409,141.338 38.5,135.5C 39.3382,135.158 39.6716,134.492 39.5,133.5C 40.3382,133.158 40.6716,132.492 40.5,131.5C 41.3382,131.158 41.6716,130.492 41.5,129.5C 44.7483,124.674 47.7483,119.674 50.5,114.5C 62.6539,95.0085 77.9872,78.3418 96.5,64.5C 95.0313,66.1053 95.3646,66.6053 97.5,66C 105.402,59.9168 113.402,54.0835 121.5,48.5C 133.513,41.9913 145.846,36.3246 158.5,31.5C 175.145,26.3709 192.145,23.0376 209.5,21.5 Z"/></g>
<g><path style="opacity:0.008" fill="#dddddd" d="M 270.5,23.5 C 271.251,22.4265 272.251,22.2599 273.5,23C 272.552,23.4828 271.552,23.6495 270.5,23.5 Z"/></g>
<g><path style="opacity:0.008" fill="#d4d4d4" d="M 174.5,24.5 C 173.448,24.6495 172.448,24.4828 171.5,24C 172.749,23.2599 173.749,23.4265 174.5,24.5 Z"/></g>
<g><path style="opacity:0.008" fill="#dadada" d="M 274.5,24.5 C 275.251,23.4265 276.251,23.2599 277.5,24C 276.552,24.4828 275.552,24.6495 274.5,24.5 Z"/></g>
<g><path style="opacity:0.008" fill="#e5e4e4" d="M 168.5,25.5 C 168.897,24.475 169.563,24.3083 170.5,25C 169.906,25.4643 169.239,25.631 168.5,25.5 Z"/></g>
<g><path style="opacity:0.008" fill="#c3c3c3" d="M 281.5,25.5 C 280.448,25.6495 279.448,25.4828 278.5,25C 279.749,24.2599 280.749,24.4265 281.5,25.5 Z"/></g>
<g><path style="opacity:0.008" fill="#d1d1d1" d="M 167.5,26.5 C 166.448,26.6495 165.448,26.4828 164.5,26C 165.749,25.2599 166.749,25.4265 167.5,26.5 Z"/></g>
<g><path style="opacity:0.008" fill="#d5d5d5" d="M 281.5,26.5 C 281.5,26.1667 281.5,25.8333 281.5,25.5C 285.5,25.8333 285.5,26.1667 281.5,26.5 Z"/></g>
<g><path style="opacity:0.008" fill="#cccccc" d="M 161.5,27.5 C 161.897,26.475 162.563,26.3083 163.5,27C 162.906,27.4643 162.239,27.631 161.5,27.5 Z"/></g>
<g><path style="opacity:0.004" fill="#c6c6c6" d="M 285.5,27.5 C 285.897,26.475 286.563,26.3083 287.5,27C 286.906,27.4643 286.239,27.631 285.5,27.5 Z"/></g>
<g><path style="opacity:0.008" fill="#cfcfd0" d="M 158.5,28.5 C 158.897,27.475 159.563,27.3083 160.5,28C 159.906,28.4643 159.239,28.631 158.5,28.5 Z"/></g>
<g><path style="opacity:0.682" fill="#c1c2c2" d="M 217.5,19.5 C 218.552,19.3505 219.552,19.5172 220.5,20C 216.644,20.1773 212.977,20.6773 209.5,21.5C 192.145,23.0376 175.145,26.3709 158.5,31.5C 157.833,31.5 157.5,31.1667 157.5,30.5C 160.984,29.3433 164.317,28.01 167.5,26.5C 170.152,26.5905 172.485,25.9238 174.5,24.5C 177.781,24.5797 180.781,23.913 183.5,22.5C 194.757,20.6764 206.09,19.6764 217.5,19.5 Z"/></g>
<g><path style="opacity:0.008" fill="#bfbfbe" d="M 288.5,28.5 C 288.897,27.475 289.563,27.3083 290.5,28C 289.906,28.4643 289.239,28.631 288.5,28.5 Z"/></g>
<g><path style="opacity:0.008" fill="#d3d3d3" d="M 155.5,29.5 C 155.897,28.475 156.563,28.3083 157.5,29C 156.906,29.4643 156.239,29.631 155.5,29.5 Z"/></g>
<g><path style="opacity:0.008" fill="#c0c0c0" d="M 291.5,29.5 C 291.897,28.475 292.563,28.3083 293.5,29C 292.906,29.4643 292.239,29.631 291.5,29.5 Z"/></g>
<g><path style="opacity:0.008" fill="#bebdbe" d="M 152.5,30.5 C 152.897,29.475 153.563,29.3083 154.5,30C 153.906,30.4643 153.239,30.631 152.5,30.5 Z"/></g>
<g><path style="opacity:0.004" fill="#e2e2e2" d="M 152.5,30.5 C 152.5,30.8333 152.5,31.1667 152.5,31.5C 149.833,31.1667 149.833,30.8333 152.5,30.5 Z"/></g>
<g><path style="opacity:0.761" fill="#9d9d9d" d="M 251.5,20.5 C 254.43,21.299 257.43,21.6323 260.5,21.5C 261.919,22.4511 263.585,22.7845 265.5,22.5C 268.219,23.913 271.219,24.5797 274.5,24.5C 276.515,25.9238 278.848,26.5905 281.5,26.5C 282.568,27.4345 283.901,27.7678 285.5,27.5C 286.209,28.404 287.209,28.7373 288.5,28.5C 289.209,29.404 290.209,29.7373 291.5,29.5C 292.93,30.5375 294.597,31.2041 296.5,31.5C 297.209,32.404 298.209,32.7373 299.5,32.5C 302.256,34.2038 305.256,35.5371 308.5,36.5C 309.209,37.404 310.209,37.7373 311.5,37.5C 311.5,37.8333 311.5,38.1667 311.5,38.5C 311.158,39.3382 310.492,39.6716 309.5,39.5C 287.709,29.8144 265.042,23.8144 241.5,21.5C 245.042,21.8128 248.375,21.4794 251.5,20.5 Z"/></g>
<g><path style="opacity:0.008" fill="#cbcbcb" d="M 296.5,31.5 C 296.897,30.475 297.563,30.3083 298.5,31C 297.906,31.4643 297.239,31.631 296.5,31.5 Z"/></g>
<g><path style="opacity:0.004" fill="#aaaaaa" d="M 299.5,32.5 C 299.897,31.475 300.563,31.3083 301.5,32C 300.906,32.4643 300.239,32.631 299.5,32.5 Z"/></g>
<g><path style="opacity:0.008" fill="#b9bab9" d="M 302.5,32.5 C 303.833,33.1667 303.833,33.1667 302.5,32.5 Z"/></g>
<g><path style="opacity:0.008" fill="#bbbbbb" d="M 308.5,36.5 C 308.897,35.475 309.563,35.3083 310.5,36C 309.906,36.4643 309.239,36.631 308.5,36.5 Z"/></g>
<g><path style="opacity:0.008" fill="#a1a1a1" d="M 136.5,36.5 C 137.833,37.1667 137.833,37.1667 136.5,36.5 Z"/></g>
<g><path style="opacity:0.008" fill="#a9aaa9" d="M 311.5,36.5 C 312.833,37.1667 312.833,37.1667 311.5,36.5 Z"/></g>
<g><path style="opacity:0.008" fill="#9e9e9d" d="M 135.5,38.5 C 134.833,37.1667 134.833,37.1667 135.5,38.5 Z"/></g>
<g><path style="opacity:0.008" fill="#aeafad" d="M 313.5,37.5 C 314.833,38.1667 314.833,38.1667 313.5,37.5 Z"/></g>
<g><path style="opacity:0.008" fill="#9fa09f" d="M 133.5,39.5 C 132.833,38.1667 132.833,38.1667 133.5,39.5 Z"/></g>
<g><path style="opacity:0.008" fill="#aaabaa" d="M 315.5,38.5 C 316.833,39.1667 316.833,39.1667 315.5,38.5 Z"/></g>
<g><path style="opacity:0.008" fill="#939393" d="M 131.5,40.5 C 130.833,39.1667 130.833,39.1667 131.5,40.5 Z"/></g>
<g><path style="opacity:0.008" fill="#a3a4a3" d="M 317.5,39.5 C 318.833,40.1667 318.833,40.1667 317.5,39.5 Z"/></g>
<g><path style="opacity:0.008" fill="#888989" d="M 128.5,40.5 C 129.833,41.1667 129.833,41.1667 128.5,40.5 Z"/></g>
<g><path style="opacity:0.008" fill="#9b9c9b" d="M 319.5,40.5 C 320.833,41.1667 320.833,41.1667 319.5,40.5 Z"/></g>
<g><path style="opacity:0.008" fill="#757575" d="M 126.5,41.5 C 127.833,42.1667 127.833,42.1667 126.5,41.5 Z"/></g>
<g><path style="opacity:0.008" fill="#828382" d="M 321.5,41.5 C 322.833,42.1667 322.833,42.1667 321.5,41.5 Z"/></g>
<g><path style="opacity:0.008" fill="#5f605f" d="M 323.5,42.5 C 324.833,43.1667 324.833,43.1667 323.5,42.5 Z"/></g>
<g><path style="opacity:1" fill="#e3e3e3" d="M 335.5,79.5 C 334.475,79.8966 334.308,80.5632 335,81.5C 365.69,105.864 386.69,136.864 398,174.5C 399.873,183.303 401.706,191.97 403.5,200.5C 408.194,245.057 398.527,286.057 374.5,323.5C 373.448,323.351 372.448,323.517 371.5,324C 362.088,333.744 351.755,342.41 340.5,350C 324.912,358.631 309.245,366.298 293.5,373C 225.508,396.709 161.841,388.042 102.5,347C 89.9445,336.111 78.7778,323.944 69,310.5C 68.6174,311.056 68.1174,311.389 67.5,311.5C 64.0764,305.654 60.9097,299.654 58,293.5C 56.8644,290.904 56.031,288.237 55.5,285.5C 37.5894,234.604 41.2561,185.604 66.5,138.5C 100.148,87.0573 147.648,58.0573 209,51.5C 210.319,49.5125 212.152,48.3459 214.5,48C 220.461,47.0032 226.461,46.3365 232.5,46C 209.398,44.867 186.898,48.0336 165,55.5C 163.238,55.0556 163.405,54.5556 165.5,54C 167.436,53.187 169.436,52.687 171.5,52.5C 171.5,51.5 171.5,50.5 171.5,49.5C 222.809,34.887 271.809,40.7204 318.5,67C 324.59,70.6995 330.257,74.8661 335.5,79.5 Z"/></g>
<g><path style="opacity:0.008" fill="#b5b6b5" d="M 326.5,44.5 C 327.833,45.1667 327.833,45.1667 326.5,44.5 Z"/></g>
<g><path style="opacity:0.788" fill="#979798" d="M 157.5,30.5 C 157.5,31.1667 157.833,31.5 158.5,31.5C 145.846,36.3246 133.513,41.9913 121.5,48.5C 121.833,47.8333 122.167,47.1667 122.5,46.5C 125.672,44.7481 128.672,42.7481 131.5,40.5C 132.492,40.6716 133.158,40.3382 133.5,39.5C 134.492,39.6716 135.158,39.3382 135.5,38.5C 141.338,36.409 147.005,34.0757 152.5,31.5C 154.216,31.3713 155.883,31.038 157.5,30.5 Z"/></g>
<g><path style="opacity:0.999" fill="#dadada" d="M 66.5,138.5 C 67.9734,135.553 69.4734,132.553 71,129.5C 71.4935,127.866 71.6602,126.199 71.5,124.5C 95.6752,87.3293 129.009,62.3293 171.5,49.5C 171.5,50.5 171.5,51.5 171.5,52.5C 169.436,52.687 167.436,53.187 165.5,54C 163.405,54.5556 163.238,55.0556 165,55.5C 186.898,48.0336 209.398,44.867 232.5,46C 226.461,46.3365 220.461,47.0032 214.5,48C 212.152,48.3459 210.319,49.5125 209,51.5C 147.648,58.0573 100.148,87.0573 66.5,138.5 Z"/></g>
<g><path style="opacity:0.008" fill="#7b7c7b" d="M 328.5,45.5 C 329.833,46.1667 329.833,46.1667 328.5,45.5 Z"/></g>
<g><path style="opacity:0.008" fill="#424241" d="M 331.5,47.5 C 330.833,46.1667 330.833,46.1667 331.5,47.5 Z"/></g>
<g><path style="opacity:0.008" fill="#c1c2c1" d="M 331.5,47.5 C 332.833,48.1667 332.833,48.1667 331.5,47.5 Z"/></g>
<g><path style="opacity:0.008" fill="#414141" d="M 114.5,48.5 C 115.833,49.1667 115.833,49.1667 114.5,48.5 Z"/></g>
<g><path style="opacity:0.008" fill="#d4d5d5" d="M 114.5,49.5 C 114.5,49.8333 114.5,50.1667 114.5,50.5C 113.83,50.0187 113.83,49.6853 114.5,49.5 Z"/></g>
<g><path style="opacity:1" fill="#eaeaea" d="M 323.5,286.5 C 316.834,261.179 309.834,235.845 302.5,210.5C 304.86,206.437 307.193,202.437 309.5,198.5C 309.595,202.551 308.262,206.384 305.5,210C 306.676,211.914 307.676,211.748 308.5,209.5C 309.086,209.709 309.586,210.043 310,210.5C 314.671,209.617 319.504,208.284 324.5,206.5C 325.962,207.471 327.295,207.138 328.5,205.5C 329.086,205.709 329.586,206.043 330,206.5C 331.525,203.23 333.858,202.23 337,203.5C 337.853,201.875 338.853,201.542 340,202.5C 341.399,201.773 342.899,201.273 344.5,201C 345.551,199.615 346.884,198.615 348.5,198C 348.167,197.667 347.833,197.333 347.5,197C 351.961,196.469 355.294,194.803 357.5,192C 362.684,193.022 366.017,190.856 367.5,185.5C 371.387,183.999 373.387,181.499 373.5,178C 374.775,175.506 376.108,173.006 377.5,170.5C 377.595,158.518 374.762,146.852 369,135.5C 335.745,82.769 287.578,55.769 224.5,54.5C 173.474,55.4386 130.974,74.7719 97,112.5C 84.6311,127.738 76.1311,144.905 71.5,164C 72.0213,168.187 72.0213,172.521 71.5,177C 74.5479,186.027 79.5479,193.694 86.5,200C 90.2027,202.18 94.2027,203.68 98.5,204.5C 98.3505,205.552 98.5172,206.552 99,207.5C 99.3333,207.167 99.6667,206.833 100,206.5C 103.405,207.582 106.905,208.416 110.5,209C 110.167,209.333 109.833,209.667 109.5,210C 110.76,211.113 111.927,211.28 113,210.5C 113.308,211.308 113.808,211.975 114.5,212.5C 114.911,211.738 115.077,210.738 115,209.5C 116,210.833 117,212.167 118,213.5C 119.518,213.943 120.685,213.276 121.5,211.5C 122.333,212.5 123.167,213.5 124,214.5C 124.333,213.833 124.667,213.167 125,212.5C 126.943,214.645 129.276,216.312 132,217.5C 134.655,214.98 137.322,215.313 140,218.5C 141.66,218.676 143.326,218.009 145,216.5C 145.368,217.91 146.201,218.91 147.5,219.5C 152.295,219.91 157.628,219.91 163.5,219.5C 165.557,221.531 167.39,221.531 169,219.5C 169.691,221.891 170.691,221.891 172,219.5C 174.768,222.088 176.768,221.755 178,218.5C 178.383,219.056 178.883,219.389 179.5,219.5C 166.018,244.464 152.018,269.131 137.5,293.5C 136.448,293.351 135.448,293.517 134.5,294C 133.268,296.975 131.434,299.475 129,301.5C 126.987,300.104 124.987,299.771 123,300.5C 121.548,298.175 119.881,298.175 118,300.5C 117.74,298.382 116.74,296.716 115,295.5C 114.667,296.167 114.333,296.833 114,297.5C 113.259,296.359 112.425,296.359 111.5,297.5C 110.614,296.675 110.281,295.675 110.5,294.5C 105.682,294.407 101.682,292.574 98.5,289C 96.5594,288.257 94.7261,288.424 93,289.5C 91.8118,288.437 91.3118,287.103 91.5,285.5C 88.9759,285.571 86.9759,284.571 85.5,282.5C 84.914,282.709 84.414,283.043 84,283.5C 83.4553,279.608 81.4553,277.942 78,278.5C 77.6667,277.167 77.3333,275.833 77,274.5C 75.4974,274.835 74.164,274.835 73,274.5C 70.5698,269.497 67.0698,265.33 62.5,262C 62.9574,261.586 63.2907,261.086 63.5,260.5C 50.9359,237.385 47.4359,212.718 53,186.5C 71.023,119.477 113.523,76.6433 180.5,58C 247.714,43.5047 305.88,60.0047 355,107.5C 389.263,144.291 403.93,187.624 399,237.5C 397.487,240.843 396.321,244.01 395.5,247C 395.833,247.333 396.167,247.667 396.5,248C 393.212,250.237 390.878,253.237 389.5,257C 385.298,258.988 381.965,261.321 379.5,264C 376.216,263.816 374.216,265.316 373.5,268.5C 368.962,270.242 365.128,272.908 362,276.5C 358.748,275.442 356.081,276.442 354,279.5C 353.667,279.167 353.333,278.833 353,278.5C 351.092,280.738 349.092,282.071 347,282.5C 346.3,284.032 345.134,285.032 343.5,285.5C 342.033,285.277 340.533,284.944 339,284.5C 338.641,287.544 337.974,287.878 337,285.5C 335.515,288.748 333.182,289.748 330,288.5C 329.751,289.624 329.251,290.624 328.5,291.5C 327.892,290.237 327.226,288.57 326.5,286.5C 325.5,286.5 324.5,286.5 323.5,286.5 Z"/></g>
<g><path style="opacity:1" fill="#f0f0f0" d="M 309.5,198.5 C 314.939,188.555 320.606,178.721 326.5,169C 314.838,168.5 303.171,168.333 291.5,168.5C 286.989,150.791 282.323,133.124 277.5,115.5C 278.5,115.5 279.5,115.5 280.5,115.5C 280.826,118.311 281.659,120.978 283,123.5C 284.892,122.87 286.559,121.87 288,120.5C 289.016,121.634 289.683,121.301 290,119.5C 290.333,120.167 290.667,120.833 291,121.5C 291.583,119.998 292.416,118.665 293.5,117.5C 293.833,118.167 294.167,118.833 294.5,119.5C 297.784,116.259 301.451,114.426 305.5,114C 305.167,113.667 304.833,113.333 304.5,113C 306.044,112.71 307.377,112.044 308.5,111C 306.122,110.026 306.456,109.359 309.5,109C 310.014,106.585 311.014,105.251 312.5,105C 311.632,103.135 311.966,101.302 313.5,99.5C 312.965,97.7295 312.131,97.3961 311,98.5C 309.887,97.2396 309.72,96.073 310.5,95C 309.551,94.3828 308.718,94.5494 308,95.5C 307.801,93.5975 306.967,92.0975 305.5,91C 306.34,89.3335 305.84,89.1669 304,90.5C 303.727,88.8988 303.227,87.3988 302.5,86C 280.72,70.2978 256.553,61.7978 230,60.5C 226.198,61.8061 222.365,61.8061 218.5,60.5C 192.456,62.1901 168.456,70.3568 146.5,85C 145.024,87.6432 143.024,89.8099 140.5,91.5C 138.306,94.5255 136.806,97.8588 136,101.5C 135.333,100.167 134.667,100.167 134,101.5C 132.879,104.991 133.713,107.824 136.5,110C 136.056,111.762 135.556,111.595 135,109.5C 134.626,110.416 134.126,111.25 133.5,112C 137.449,116.765 142.116,120.598 147.5,123.5C 150.102,122.505 152.935,122.172 156,122.5C 157.487,123.253 157.654,124.086 156.5,125C 158.101,125.273 159.601,125.773 161,126.5C 162.558,125.655 163.558,126.321 164,128.5C 166.237,127.944 168.237,126.944 170,125.5C 170.57,128.844 171.736,129.177 173.5,126.5C 175.949,126.98 178.115,127.98 180,129.5C 180.308,128.692 180.808,128.025 181.5,127.5C 182.814,128.313 183.981,129.313 185,130.5C 185.689,129.643 186.522,128.977 187.5,128.5C 189.803,129.953 191.97,130.953 194,131.5C 194.519,130.484 195.353,129.818 196.5,129.5C 198.277,130.603 200.111,130.603 202,129.5C 206.142,130.724 209.808,131.724 213,132.5C 214.312,130.342 215.978,130.009 218,131.5C 218.456,130.256 217.956,129.423 216.5,129C 219.798,128.458 222.965,128.958 226,130.5C 227.285,130.05 228.452,129.383 229.5,128.5C 230.182,129.243 230.849,129.909 231.5,130.5C 214.404,160.366 197.071,190.033 179.5,219.5C 178.883,219.389 178.383,219.056 178,218.5C 176.768,221.755 174.768,222.088 172,219.5C 170.691,221.891 169.691,221.891 169,219.5C 167.39,221.531 165.557,221.531 163.5,219.5C 157.628,219.91 152.295,219.91 147.5,219.5C 146.201,218.91 145.368,217.91 145,216.5C 143.326,218.009 141.66,218.676 140,218.5C 137.322,215.313 134.655,214.98 132,217.5C 129.276,216.312 126.943,214.645 125,212.5C 124.667,213.167 124.333,213.833 124,214.5C 123.167,213.5 122.333,212.5 121.5,211.5C 120.685,213.276 119.518,213.943 118,213.5C 117,212.167 116,210.833 115,209.5C 115.077,210.738 114.911,211.738 114.5,212.5C 113.808,211.975 113.308,211.308 113,210.5C 111.927,211.28 110.76,211.113 109.5,210C 109.833,209.667 110.167,209.333 110.5,209C 106.905,208.416 103.405,207.582 100,206.5C 99.6667,206.833 99.3333,207.167 99,207.5C 98.5172,206.552 98.3505,205.552 98.5,204.5C 94.2027,203.68 90.2027,202.18 86.5,200C 79.5479,193.694 74.5479,186.027 71.5,177C 72.0213,172.521 72.0213,168.187 71.5,164C 76.1311,144.905 84.6311,127.738 97,112.5C 130.974,74.7719 173.474,55.4386 224.5,54.5C 287.578,55.769 335.745,82.769 369,135.5C 374.762,146.852 377.595,158.518 377.5,170.5C 376.108,173.006 374.775,175.506 373.5,178C 373.387,181.499 371.387,183.999 367.5,185.5C 366.017,190.856 362.684,193.022 357.5,192C 355.294,194.803 351.961,196.469 347.5,197C 347.833,197.333 348.167,197.667 348.5,198C 346.884,198.615 345.551,199.615 344.5,201C 342.899,201.273 341.399,201.773 340,202.5C 338.853,201.542 337.853,201.875 337,203.5C 333.858,202.23 331.525,203.23 330,206.5C 329.586,206.043 329.086,205.709 328.5,205.5C 327.295,207.138 325.962,207.471 324.5,206.5C 319.504,208.284 314.671,209.617 310,210.5C 309.586,210.043 309.086,209.709 308.5,209.5C 307.676,211.748 306.676,211.914 305.5,210C 308.262,206.384 309.595,202.551 309.5,198.5 Z"/></g>
<g><path style="opacity:0.008" fill="#9a9b9a" d="M 343.5,55.5 C 344.833,56.1667 344.833,56.1667 343.5,55.5 Z"/></g>
<g><path style="opacity:0.004" fill="#000000" d="M 102.5,56.5 C 103.833,57.1667 103.833,57.1667 102.5,56.5 Z"/></g>
<g><path style="opacity:0.008" fill="#0b0c0b" d="M 345.5,56.5 C 346.833,57.1667 346.833,57.1667 345.5,56.5 Z"/></g>
<g><path style="opacity:0.749" fill="#696969" d="M 122.5,46.5 C 122.167,47.1667 121.833,47.8333 121.5,48.5C 113.402,54.0835 105.402,59.9168 97.5,66C 95.3646,66.6053 95.0313,66.1053 96.5,64.5C 102.214,59.4513 108.214,54.7846 114.5,50.5C 117.167,49.1667 119.833,47.8333 122.5,46.5 Z"/></g>
<g><path style="opacity:0.004" fill="#000000" d="M 98.5,59.5 C 99.8333,60.1667 99.8333,60.1667 98.5,59.5 Z"/></g>
<g><path style="opacity:0.745" fill="#6e6e6e" d="M 311.5,38.5 C 312.167,38.5 312.833,38.5 313.5,38.5C 313.842,39.3382 314.508,39.6716 315.5,39.5C 315.842,40.3382 316.508,40.6716 317.5,40.5C 317.842,41.3382 318.508,41.6716 319.5,41.5C 319.842,42.3382 320.508,42.6716 321.5,42.5C 322.659,44.2503 324.326,45.2503 326.5,45.5C 326.842,46.3382 327.508,46.6716 328.5,46.5C 328.973,47.9063 329.973,48.573 331.5,48.5C 335.205,51.5256 339.205,54.1923 343.5,56.5C 345.86,58.8532 348.527,60.8532 351.5,62.5C 351.833,63.1667 352.167,63.8333 352.5,64.5C 353.969,66.1053 353.635,66.6053 351.5,66C 338.353,55.6602 324.353,46.8268 309.5,39.5C 310.492,39.6716 311.158,39.3382 311.5,38.5 Z"/></g>
<g><path style="opacity:1" fill="#f4f4f4" d="M 277.5,115.5 C 277.461,114.417 277.127,113.417 276.5,112.5C 265.181,111.334 253.848,111.168 242.5,112C 238.948,118.277 235.281,124.444 231.5,130.5C 230.849,129.909 230.182,129.243 229.5,128.5C 228.452,129.383 227.285,130.05 226,130.5C 222.965,128.958 219.798,128.458 216.5,129C 217.956,129.423 218.456,130.256 218,131.5C 215.978,130.009 214.312,130.342 213,132.5C 209.808,131.724 206.142,130.724 202,129.5C 200.111,130.603 198.277,130.603 196.5,129.5C 195.353,129.818 194.519,130.484 194,131.5C 191.97,130.953 189.803,129.953 187.5,128.5C 186.522,128.977 185.689,129.643 185,130.5C 183.981,129.313 182.814,128.313 181.5,127.5C 180.808,128.025 180.308,128.692 180,129.5C 178.115,127.98 175.949,126.98 173.5,126.5C 171.736,129.177 170.57,128.844 170,125.5C 168.237,126.944 166.237,127.944 164,128.5C 163.558,126.321 162.558,125.655 161,126.5C 159.601,125.773 158.101,125.273 156.5,125C 157.654,124.086 157.487,123.253 156,122.5C 152.935,122.172 150.102,122.505 147.5,123.5C 142.116,120.598 137.449,116.765 133.5,112C 134.126,111.25 134.626,110.416 135,109.5C 135.556,111.595 136.056,111.762 136.5,110C 133.713,107.824 132.879,104.991 134,101.5C 134.667,100.167 135.333,100.167 136,101.5C 136.806,97.8588 138.306,94.5255 140.5,91.5C 143.024,89.8099 145.024,87.6432 146.5,85C 168.456,70.3568 192.456,62.1901 218.5,60.5C 222.365,61.8061 226.198,61.8061 230,60.5C 256.553,61.7978 280.72,70.2978 302.5,86C 303.227,87.3988 303.727,88.8988 304,90.5C 305.84,89.1669 306.34,89.3335 305.5,91C 306.967,92.0975 307.801,93.5975 308,95.5C 308.718,94.5494 309.551,94.3828 310.5,95C 309.72,96.073 309.887,97.2396 311,98.5C 312.131,97.3961 312.965,97.7295 313.5,99.5C 311.966,101.302 311.632,103.135 312.5,105C 311.014,105.251 310.014,106.585 309.5,109C 306.456,109.359 306.122,110.026 308.5,111C 307.377,112.044 306.044,112.71 304.5,113C 304.833,113.333 305.167,113.667 305.5,114C 301.451,114.426 297.784,116.259 294.5,119.5C 294.167,118.833 293.833,118.167 293.5,117.5C 292.416,118.665 291.583,119.998 291,121.5C 290.667,120.833 290.333,120.167 290,119.5C 289.683,121.301 289.016,121.634 288,120.5C 286.559,121.87 284.892,122.87 283,123.5C 281.659,120.978 280.826,118.311 280.5,115.5C 279.5,115.5 278.5,115.5 277.5,115.5 Z"/></g>
<g><path style="opacity:0.008" fill="#525352" d="M 351.5,61.5 C 352.833,62.1667 352.833,62.1667 351.5,61.5 Z"/></g>
<g><path style="opacity:0.004" fill="#000000" d="M 353.5,62.5 C 354.833,63.1667 354.833,63.1667 353.5,62.5 Z"/></g>
<g><path style="opacity:0.008" fill="#121311" d="M 357.5,66.5 C 358.833,67.1667 358.833,67.1667 357.5,66.5 Z"/></g>
<g><path style="opacity:0.004" fill="#000000" d="M 359.5,67.5 C 360.833,68.1667 360.833,68.1667 359.5,67.5 Z"/></g>
<g><path style="opacity:0.008" fill="#000000" d="M 380.5,88.5 C 379.833,87.1667 379.833,87.1667 380.5,88.5 Z"/></g>
<g><path style="opacity:0.004" fill="#000000" d="M 380.5,88.5 C 381.833,89.1667 381.833,89.1667 380.5,88.5 Z"/></g>
<g><path style="opacity:0.008" fill="#000000" d="M 385.5,94.5 C 384.833,93.1667 384.833,93.1667 385.5,94.5 Z"/></g>
<g><path style="opacity:0.004" fill="#000000" d="M 385.5,94.5 C 386.833,95.1667 386.833,95.1667 385.5,94.5 Z"/></g>
<g><path style="opacity:0.004" fill="#000000" d="M 59.5,98.5 C 60.8333,99.1667 60.8333,99.1667 59.5,98.5 Z"/></g>
<g><path style="opacity:0.004" fill="#000000" d="M 56.5,102.5 C 57.8333,103.167 57.8333,103.167 56.5,102.5 Z"/></g>
<g><path style="opacity:0.008" fill="#000000" d="M 391.5,102.5 C 392.833,103.167 392.833,103.167 391.5,102.5 Z"/></g>
<g><path style="opacity:0.012" fill="#000100" d="M 396.5,109.5 C 395.833,108.167 395.833,108.167 396.5,109.5 Z"/></g>
<g><path style="opacity:0.004" fill="#030403" d="M 396.5,109.5 C 397.833,110.167 397.833,110.167 396.5,109.5 Z"/></g>
<g><path style="opacity:1" fill="#020202" d="M 277.5,115.5 C 282.323,133.124 286.989,150.791 291.5,168.5C 303.171,168.333 314.838,168.5 326.5,169C 320.606,178.721 314.939,188.555 309.5,198.5C 307.193,202.437 304.86,206.437 302.5,210.5C 309.834,235.845 316.834,261.179 323.5,286.5C 327.968,302.704 331.968,319.037 335.5,335.5C 324.346,336.495 313.012,336.828 301.5,336.5C 294.474,308.062 286.974,279.729 279,251.5C 262.488,279.861 245.988,308.194 229.5,336.5C 216.656,336.829 203.989,336.495 191.5,335.5C 195.5,328.5 199.5,321.5 203.5,314.5C 224.069,278.364 244.902,242.364 266,206.5C 266.667,204.833 266.667,203.167 266,201.5C 262.309,187.399 258.309,173.399 254,159.5C 225.236,208.697 196.736,258.031 168.5,307.5C 162.596,316.967 156.929,326.633 151.5,336.5C 138.656,336.829 125.989,336.495 113.5,335.5C 121.5,321.5 129.5,307.5 137.5,293.5C 152.018,269.131 166.018,244.464 179.5,219.5C 197.071,190.033 214.404,160.366 231.5,130.5C 235.281,124.444 238.948,118.277 242.5,112C 253.848,111.168 265.181,111.334 276.5,112.5C 277.127,113.417 277.461,114.417 277.5,115.5 Z"/></g>
<g><path style="opacity:0.008" fill="#000000" d="M 50.5,114.5 C 49.8333,113.167 49.8333,113.167 50.5,114.5 Z"/></g>
<g><path style="opacity:0.008" fill="#000000" d="M 49.5,114.5 C 48.8333,115.167 48.8333,115.167 49.5,114.5 Z"/></g>
<g><path style="opacity:0.008" fill="#747573" d="M 399.5,114.5 C 400.833,115.167 400.833,115.167 399.5,114.5 Z"/></g>
<g><path style="opacity:0.42" fill="#888888" d="M 397.5,114.5 C 398.167,114.833 398.833,115.167 399.5,115.5C 399.5,116.167 399.5,116.833 399.5,117.5C 398.094,117.027 397.427,116.027 397.5,114.5 Z"/></g>
<g><path style="opacity:0.008" fill="#191a1a" d="M 401.5,117.5 C 400.833,116.167 400.833,116.167 401.5,117.5 Z"/></g>
<g><path style="opacity:0.008" fill="#989998" d="M 401.5,117.5 C 402.833,118.167 402.833,118.167 401.5,117.5 Z"/></g>
<g><path style="opacity:0.996" fill="#c1c1c1" d="M 335.5,79.5 C 371.486,106.42 394.152,142.087 403.5,186.5C 403.29,191.814 403.29,196.481 403.5,200.5C 401.706,191.97 399.873,183.303 398,174.5C 386.69,136.864 365.69,105.864 335,81.5C 334.308,80.5632 334.475,79.8966 335.5,79.5 Z"/></g>
<g><path style="opacity:0.404" fill="#929191" d="M 400.5,119.5 C 401.906,119.973 402.573,120.973 402.5,122.5C 401.094,122.027 400.427,121.027 400.5,119.5 Z"/></g>
<g><path style="opacity:0.004" fill="#3e3e3e" d="M 405.5,124.5 C 405.167,124.5 404.833,124.5 404.5,124.5C 404.833,121.833 405.167,121.833 405.5,124.5 Z"/></g>
<g><path style="opacity:0.008" fill="#aaabaa" d="M 405.5,124.5 C 406.833,125.167 406.833,125.167 405.5,124.5 Z"/></g>
<g><path style="opacity:0.008" fill="#000000" d="M 41.5,126.5 C 42.8333,127.167 42.8333,127.167 41.5,126.5 Z"/></g>
<g><path style="opacity:0.008" fill="#8a8b8a" d="M 406.5,126.5 C 407.833,127.167 407.833,127.167 406.5,126.5 Z"/></g>
<g><path style="opacity:0.008" fill="#000000" d="M 41.5,129.5 C 40.8333,128.167 40.8333,128.167 41.5,129.5 Z"/></g>
<g><path style="opacity:0.337" fill="#a9a9a9" d="M 404.5,126.5 C 405.167,126.833 405.833,127.167 406.5,127.5C 406.5,128.167 406.5,128.833 406.5,129.5C 405.094,129.027 404.427,128.027 404.5,126.5 Z"/></g>
<g><path style="opacity:0.008" fill="#808180" d="M 407.5,128.5 C 408.833,129.167 408.833,129.167 407.5,128.5 Z"/></g>
<g><path style="opacity:0.008" fill="#000000" d="M 40.5,131.5 C 39.8333,130.167 39.8333,130.167 40.5,131.5 Z"/></g>
<g><path style="opacity:0.008" fill="#838483" d="M 408.5,130.5 C 409.833,131.167 409.833,131.167 408.5,130.5 Z"/></g>
<g><path style="opacity:0.008" fill="#000000" d="M 39.5,133.5 C 38.8333,132.167 38.8333,132.167 39.5,133.5 Z"/></g>
<g><path style="opacity:0.008" fill="#818281" d="M 409.5,132.5 C 410.833,133.167 410.833,133.167 409.5,132.5 Z"/></g>
<g><path style="opacity:0.008" fill="#000000" d="M 38.5,135.5 C 37.8333,134.167 37.8333,134.167 38.5,135.5 Z"/></g>
<g><path style="opacity:0.008" fill="#7e7f7e" d="M 410.5,134.5 C 411.833,135.167 411.833,135.167 410.5,134.5 Z"/></g>
<g><path style="opacity:0.008" fill="#000000" d="M 36.5,136.5 C 37.8333,137.167 37.8333,137.167 36.5,136.5 Z"/></g>
<g><path style="opacity:0.796" fill="#787777" d="M 408.5,133.5 C 408.833,133.5 409.167,133.5 409.5,133.5C 409.328,134.492 409.662,135.158 410.5,135.5C 410.5,136.167 410.5,136.833 410.5,137.5C 408.824,136.817 408.157,135.483 408.5,133.5 Z"/></g>
<g><path style="opacity:0.008" fill="#858685" d="M 411.5,136.5 C 412.833,137.167 412.833,137.167 411.5,136.5 Z"/></g>
<g><path style="opacity:0.008" fill="#a9aaa9" d="M 412.5,138.5 C 413.833,139.167 413.833,139.167 412.5,138.5 Z"/></g>
<g><path style="opacity:0.769" fill="#858585" d="M 410.5,137.5 C 410.833,137.5 411.167,137.5 411.5,137.5C 411.629,139.216 411.962,140.883 412.5,142.5C 410.787,141.365 410.12,139.698 410.5,137.5 Z"/></g>
<g><path style="opacity:0.008" fill="#a5a5a5" d="M 415.5,146.5 C 415.369,145.761 415.536,145.094 416,144.5C 416.692,145.437 416.525,146.103 415.5,146.5 Z"/></g>
<g><path style="opacity:0.008" fill="#636362" d="M 416.5,149.5 C 416.369,148.761 416.536,148.094 417,147.5C 417.692,148.437 417.525,149.103 416.5,149.5 Z"/></g>
<g><path style="opacity:0.69" fill="#9c9c9c" d="M 412.5,142.5 C 413.5,143.833 414.5,145.167 415.5,146.5C 415.263,147.791 415.596,148.791 416.5,149.5C 416.402,151.553 417.069,153.22 418.5,154.5C 418.263,155.791 418.596,156.791 419.5,157.5C 419.263,158.791 419.596,159.791 420.5,160.5C 420.263,161.791 420.596,162.791 421.5,163.5C 421.5,164.833 421.5,166.167 421.5,167.5C 417.923,159.441 414.923,151.108 412.5,142.5 Z"/></g>
<g><path style="opacity:0.006" fill="#000000" d="M 31.5,152.5 C 31.1667,152.5 30.8333,152.5 30.5,152.5C 30.8333,149.833 31.1667,149.833 31.5,152.5 Z"/></g>
<g><path style="opacity:0.008" fill="#a6a7a6" d="M 417.5,150.5 C 418.833,151.167 418.833,151.167 417.5,150.5 Z"/></g>
<g><path style="opacity:0.006" fill="#000000" d="M 30.5,152.5 C 30.631,153.239 30.4643,153.906 30,154.5C 29.3083,153.563 29.475,152.897 30.5,152.5 Z"/></g>
<g><path style="opacity:0.008" fill="#909090" d="M 418.5,154.5 C 418.369,153.761 418.536,153.094 419,152.5C 419.692,153.437 419.525,154.103 418.5,154.5 Z"/></g>
<g><path style="opacity:0.006" fill="#010101" d="M 28.5,155.5 C 29.525,155.897 29.6917,156.563 29,157.5C 28.5357,156.906 28.369,156.239 28.5,155.5 Z"/></g>
<g><path style="opacity:0.008" fill="#626262" d="M 419.5,157.5 C 419.369,156.761 419.536,156.094 420,155.5C 420.692,156.437 420.525,157.103 419.5,157.5 Z"/></g>
<g><path style="opacity:0.006" fill="#010101" d="M 27.5,158.5 C 28.525,158.897 28.6917,159.563 28,160.5C 27.5357,159.906 27.369,159.239 27.5,158.5 Z"/></g>
<g><path style="opacity:0.008" fill="#6b6b6c" d="M 420.5,160.5 C 420.369,159.761 420.536,159.094 421,158.5C 421.692,159.437 421.525,160.103 420.5,160.5 Z"/></g>
<g><path style="opacity:0.006" fill="#000000" d="M 26.5,161.5 C 27.525,161.897 27.6917,162.563 27,163.5C 26.5357,162.906 26.369,162.239 26.5,161.5 Z"/></g>
<g><path style="opacity:0.008" fill="#797979" d="M 421.5,163.5 C 421.369,162.761 421.536,162.094 422,161.5C 422.692,162.437 422.525,163.103 421.5,163.5 Z"/></g>
<g><path style="opacity:0.006" fill="#0f0f0f" d="M 26.5,167.5 C 25.4265,166.749 25.2599,165.749 26,164.5C 26.4828,165.448 26.6495,166.448 26.5,167.5 Z"/></g>
<g><path style="opacity:0.008" fill="#919292" d="M 422.5,164.5 C 423.525,164.897 423.692,165.563 423,166.5C 422.536,165.906 422.369,165.239 422.5,164.5 Z"/></g>
<g><path style="opacity:0.008" fill="#999a99" d="M 423.5,170.5 C 423.351,169.448 423.517,168.448 424,167.5C 424.74,168.749 424.573,169.749 423.5,170.5 Z"/></g>
<g><path style="opacity:0.008" fill="#070607" d="M 24.5,168.5 C 25.525,168.897 25.6917,169.563 25,170.5C 24.5357,169.906 24.369,169.239 24.5,168.5 Z"/></g>
<g><path style="opacity:0.647" fill="#b5b5b5" d="M 421.5,167.5 C 422.167,168.5 422.833,169.5 423.5,170.5C 423.5,171.833 423.5,173.167 423.5,174.5C 422.076,172.485 421.41,170.152 421.5,167.5 Z"/></g>
<g><path style="opacity:0.006" fill="#080808" d="M 24.5,174.5 C 23.4265,173.749 23.2599,172.749 24,171.5C 24.4828,172.448 24.6495,173.448 24.5,174.5 Z"/></g>
<g><path style="opacity:0.008" fill="#a8a8a8" d="M 424.5,171.5 C 425.525,171.897 425.692,172.563 425,173.5C 424.536,172.906 424.369,172.239 424.5,171.5 Z"/></g>
<g><path style="opacity:0.006" fill="#040404" d="M 22.5,175.5 C 23.5735,176.251 23.7401,177.251 23,178.5C 22.5172,177.552 22.3505,176.552 22.5,175.5 Z"/></g>
<g><path style="opacity:0.008" fill="#7e7e7e" d="M 425.5,178.5 C 425.351,177.448 425.517,176.448 426,175.5C 426.74,176.749 426.573,177.749 425.5,178.5 Z"/></g>
<g><path style="opacity:0.006" fill="#111111" d="M 22.5,183.5 C 21.4017,182.399 21.235,181.066 22,179.5C 22.49,180.793 22.6567,182.127 22.5,183.5 Z"/></g>
<g><path style="opacity:0.008" fill="#ababab" d="M 426.5,179.5 C 427.573,180.251 427.74,181.251 427,182.5C 426.517,181.552 426.351,180.552 426.5,179.5 Z"/></g>
<g><path style="opacity:0.792" fill="#a7a7a8" d="M 423.5,174.5 C 424.167,175.833 424.833,177.167 425.5,178.5C 425.549,182.078 426.215,185.411 427.5,188.5C 429.892,204.165 430.558,219.832 429.5,235.5C 429.167,235.5 428.833,235.5 428.5,235.5C 428.667,224.828 428.5,214.161 428,203.5C 426.171,193.862 424.671,184.196 423.5,174.5 Z"/></g>
<g><path style="opacity:0.006" fill="#0e0e0e" d="M 20.5,184.5 C 21.5983,185.601 21.765,186.934 21,188.5C 20.51,187.207 20.3433,185.873 20.5,184.5 Z"/></g>
<g><path style="opacity:0.008" fill="#848584" d="M 427.5,188.5 C 427.34,186.801 427.506,185.134 428,183.5C 428.78,185.387 428.613,187.054 427.5,188.5 Z"/></g>
<g><path style="opacity:0.008" fill="#aaaaaa" d="M 428.5,189.5 C 429.598,190.601 429.765,191.934 429,193.5C 428.51,192.207 428.343,190.873 428.5,189.5 Z"/></g>
<g><path style="opacity:0.008" fill="#161616" d="M 19.5,190.5 C 20.5983,191.601 20.765,192.934 20,194.5C 19.51,193.207 19.3433,191.873 19.5,190.5 Z"/></g>
<g><path style="opacity:0.007" fill="#131313" d="M 18.5,196.5 C 19.6225,198.288 19.7891,200.288 19,202.5C 18.5045,200.527 18.3379,198.527 18.5,196.5 Z"/></g>
<g><path style="opacity:0.012" fill="#949494" d="M 429.5,195.5 C 430.622,197.288 430.789,199.288 430,201.5C 429.505,199.527 429.338,197.527 429.5,195.5 Z"/></g>
<g><path style="opacity:0.749" fill="#1b1b1b" d="M 57.5,111.5 C 58.552,111.351 59.552,111.517 60.5,112C 26.1552,163.55 16.9885,219.383 33,279.5C 38.3993,297.963 46.2326,315.296 56.5,331.5C 56.1667,331.833 55.8333,332.167 55.5,332.5C 53.1956,330.569 51.3622,328.236 50,325.5C 18.849,267.245 15.1824,207.245 39,145.5C 44.4167,133.66 50.5834,122.326 57.5,111.5 Z"/></g>
<g><path style="opacity:0.008" fill="#9a9a9a" d="M 430.5,203.5 C 431.641,206.64 431.808,209.973 431,213.5C 430.502,210.183 430.335,206.85 430.5,203.5 Z"/></g>
<g><path style="opacity:0.008" fill="#2d2d2d" d="M 17.5,204.5 C 18.6433,207.976 18.8099,211.642 18,215.5C 17.5014,211.848 17.3347,208.182 17.5,204.5 Z"/></g>
<g><path style="opacity:0.717" fill="#20201f" d="M 24.5,270.5 C 23.9759,268.694 23.3092,267.028 22.5,265.5C 22.7845,263.585 22.4511,261.919 21.5,260.5C 20.2165,248.532 19.2165,236.532 18.5,224.5C 19.1245,210.754 20.4578,197.087 22.5,183.5C 23.913,180.781 24.5797,177.781 24.5,174.5C 25.9238,172.485 26.5905,170.152 26.5,167.5C 28.1667,163.5 29.8333,159.5 31.5,155.5C 32.5585,154.4 33.3918,153.066 34,151.5C 34.1667,152 34.3333,152.5 34.5,153C 23.9246,181.91 19.7579,211.743 22,242.5C 23.4525,252.87 24.7858,263.203 26,273.5C 25.7679,272.263 25.2679,271.263 24.5,270.5 Z"/></g>
<g><path style="opacity:1" fill="#e9e9e9" d="M 203.5,314.5 C 202.636,313.312 201.636,312.145 200.5,311C 199.216,310.316 198.049,310.483 197,311.5C 195.676,310.12 194.343,309.786 193,310.5C 191.691,308.109 190.691,308.109 190,310.5C 187.733,309.065 185.733,309.398 184,311.5C 182.667,308.833 181.333,308.833 180,311.5C 177.482,309.536 174.816,308.87 172,309.5C 170.691,307.109 169.691,307.109 169,309.5C 168.536,308.906 168.369,308.239 168.5,307.5C 196.736,258.031 225.236,208.697 254,159.5C 258.309,173.399 262.309,187.399 266,201.5C 266.667,203.167 266.667,204.833 266,206.5C 244.902,242.364 224.069,278.364 203.5,314.5 Z"/></g>
<g><path style="opacity:0.004" fill="#000000" d="M 16.5,223.5 C 17.525,223.897 17.6917,224.563 17,225.5C 16.5357,224.906 16.369,224.239 16.5,223.5 Z"/></g>
<g><path style="opacity:0.004" fill="#dddddd" d="M 431.5,219.5 C 432.641,222.64 432.808,225.973 432,229.5C 431.502,226.183 431.335,222.85 431.5,219.5 Z"/></g>
<g><path style="opacity:0.006" fill="#171717" d="M 17.5,233.5 C 18.6433,236.976 18.8099,240.642 18,244.5C 17.5014,240.848 17.3347,237.182 17.5,233.5 Z"/></g>
<g><path style="opacity:0.008" fill="#a5a5a5" d="M 430.5,235.5 C 431.641,238.64 431.808,241.973 431,245.5C 430.502,242.183 430.335,238.85 430.5,235.5 Z"/></g>
<g><path style="opacity:0.093" fill="#dbdbdb" d="M 428.5,235.5 C 428.833,235.5 429.167,235.5 429.5,235.5C 429.663,242.062 428.996,248.395 427.5,254.5C 427.9,248.171 428.233,241.838 428.5,235.5 Z"/></g>
<g><path style="opacity:0.008" fill="#121212" d="M 18.5,246.5 C 19.6225,248.288 19.7891,250.288 19,252.5C 18.5045,250.527 18.3379,248.527 18.5,246.5 Z"/></g>
<g><path style="opacity:0.008" fill="#a1a1a1" d="M 429.5,247.5 C 430.622,249.288 430.789,251.288 430,253.5C 429.505,251.527 429.338,249.527 429.5,247.5 Z"/></g>
<g><path style="opacity:0.999" fill="#b6b5b5" d="M 71.5,124.5 C 71.6602,126.199 71.4935,127.866 71,129.5C 69.4734,132.553 67.9734,135.553 66.5,138.5C 41.2561,185.604 37.5894,234.604 55.5,285.5C 54.609,286.11 53.609,286.443 52.5,286.5C 32.7117,229.272 39.0451,175.272 71.5,124.5 Z"/></g>
<g><path style="opacity:0.004" fill="#131313" d="M 19.5,254.5 C 20.5983,255.601 20.765,256.934 20,258.5C 19.51,257.207 19.3433,255.873 19.5,254.5 Z"/></g>
<g><path style="opacity:0.004" fill="#b2b2b2" d="M 428.5,255.5 C 429.598,256.601 429.765,257.934 429,259.5C 428.51,258.207 428.343,256.873 428.5,255.5 Z"/></g>
<g><path style="opacity:0.006" fill="#0e0e0e" d="M 21.5,260.5 C 21.6567,261.873 21.49,263.207 21,264.5C 20.235,262.934 20.4017,261.601 21.5,260.5 Z"/></g>
<g><path style="opacity:0.004" fill="#bebfbf" d="M 427.5,261.5 C 428.598,262.601 428.765,263.934 428,265.5C 427.51,264.207 427.343,262.873 427.5,261.5 Z"/></g>
<g><path style="opacity:0.006" fill="#0e0d0e" d="M 22.5,265.5 C 22.6567,266.873 22.49,268.207 22,269.5C 21.235,267.934 21.4017,266.601 22.5,265.5 Z"/></g>
<g><path style="opacity:0.008" fill="#a6a6a6" d="M 426.5,266.5 C 427.573,267.251 427.74,268.251 427,269.5C 426.517,268.552 426.351,267.552 426.5,266.5 Z"/></g>
<g><path style="opacity:0.006" fill="#040404" d="M 22.5,270.5 C 23.5735,271.251 23.7401,272.251 23,273.5C 22.5172,272.552 22.3505,271.552 22.5,270.5 Z"/></g>
<g><path style="opacity:0.008" fill="#7a7a7a" d="M 425.5,270.5 C 426.573,271.251 426.74,272.251 426,273.5C 425.517,272.552 425.351,271.552 425.5,270.5 Z"/></g>
<g><path style="opacity:0.006" fill="#0a0a0a" d="M 24.5,274.5 C 24.6495,275.552 24.4828,276.552 24,277.5C 23.2599,276.251 23.4265,275.251 24.5,274.5 Z"/></g>
<g><path style="opacity:0.008" fill="#b0b0b0" d="M 424.5,275.5 C 425.525,275.897 425.692,276.563 425,277.5C 424.536,276.906 424.369,276.239 424.5,275.5 Z"/></g>
<g><path style="opacity:0.006" fill="#030203" d="M 25.5,281.5 C 24.4265,280.749 24.2599,279.749 25,278.5C 25.4828,279.448 25.6495,280.448 25.5,281.5 Z"/></g>
<g><path style="opacity:0.008" fill="#8e8e8e" d="M 423.5,278.5 C 424.573,279.251 424.74,280.251 424,281.5C 423.517,280.552 423.351,279.552 423.5,278.5 Z"/></g>
<g><path style="opacity:0.006" fill="#131313" d="M 25.5,281.5 C 25.8333,281.5 26.1667,281.5 26.5,281.5C 26.1667,285.5 25.8333,285.5 25.5,281.5 Z"/></g>
<g><path style="opacity:0.42" fill="#a9a9a9" d="M 427.5,255.5 C 426.833,260.5 426.167,265.5 425.5,270.5C 424.232,272.905 423.565,275.572 423.5,278.5C 422.076,280.515 421.41,282.848 421.5,285.5C 420.596,286.209 420.263,287.209 420.5,288.5C 420.167,288.5 419.833,288.5 419.5,288.5C 421.971,277.914 424.137,267.248 426,256.5C 426.383,255.944 426.883,255.611 427.5,255.5 Z"/></g>
<g><path style="opacity:0.008" fill="#a4a4a4" d="M 422.5,282.5 C 423.525,282.897 423.692,283.563 423,284.5C 422.536,283.906 422.369,283.239 422.5,282.5 Z"/></g>
<g><path style="opacity:0.006" fill="#000100" d="M 27.5,285.5 C 27.631,286.239 27.4643,286.906 27,287.5C 26.3083,286.563 26.475,285.897 27.5,285.5 Z"/></g>
<g><path style="opacity:0.008" fill="#929292" d="M 421.5,285.5 C 422.525,285.897 422.692,286.563 422,287.5C 421.536,286.906 421.369,286.239 421.5,285.5 Z"/></g>
<g><path style="opacity:0.008" fill="#010101" d="M 28.5,288.5 C 28.631,289.239 28.4643,289.906 28,290.5C 27.3083,289.563 27.475,288.897 28.5,288.5 Z"/></g>
<g><path style="opacity:0.008" fill="#868686" d="M 420.5,288.5 C 421.525,288.897 421.692,289.563 421,290.5C 420.536,289.906 420.369,289.239 420.5,288.5 Z"/></g>
<g><path style="opacity:0.008" fill="#010101" d="M 29.5,291.5 C 29.631,292.239 29.4643,292.906 29,293.5C 28.3083,292.563 28.475,291.897 29.5,291.5 Z"/></g>
<g><path style="opacity:0.008" fill="#7c7c7c" d="M 419.5,291.5 C 420.525,291.897 420.692,292.563 420,293.5C 419.536,292.906 419.369,292.239 419.5,291.5 Z"/></g>
<g><path style="opacity:0.675" fill="#a0a0a0" d="M 419.5,288.5 C 419.5,289.5 419.5,290.5 419.5,291.5C 418.596,292.209 418.263,293.209 418.5,294.5C 417.069,295.78 416.402,297.447 416.5,299.5C 415.596,300.209 415.263,301.209 415.5,302.5C 415.167,302.5 414.833,302.5 414.5,302.5C 415.009,297.297 416.676,292.63 419.5,288.5 Z"/></g>
<g><path style="opacity:0.004" fill="#a4a4a4" d="M 418.5,294.5 C 419.525,294.897 419.692,295.563 419,296.5C 418.536,295.906 418.369,295.239 418.5,294.5 Z"/></g>
<g><path style="opacity:0.006" fill="#000000" d="M 31.5,296.5 C 31.631,297.239 31.4643,297.906 31,298.5C 30.3083,297.563 30.475,296.897 31.5,296.5 Z"/></g>
<g><path style="opacity:0.004" fill="#c9c9c9" d="M 417.5,299.5 C 417.369,298.761 417.536,298.094 418,297.5C 418.692,298.437 418.525,299.103 417.5,299.5 Z"/></g>
<g><path style="opacity:0.006" fill="#000000" d="M 32.5,299.5 C 32.631,300.239 32.4643,300.906 32,301.5C 31.3083,300.563 31.475,299.897 32.5,299.5 Z"/></g>
<g><path style="opacity:0.008" fill="#7f7f7f" d="M 416.5,299.5 C 416.833,299.5 417.167,299.5 417.5,299.5C 417.167,302.167 416.833,302.167 416.5,299.5 Z"/></g>
<g><path style="opacity:0.008" fill="#000000" d="M 32.5,302.5 C 33.8333,303.167 33.8333,303.167 32.5,302.5 Z"/></g>
<g><path style="opacity:0.004" fill="#b5b5b5" d="M 415.5,302.5 C 416.833,303.167 416.833,303.833 415.5,304.5C 415.5,303.833 415.5,303.167 415.5,302.5 Z"/></g>
<g><path style="opacity:0.459" fill="#a7a7a7" d="M 414.5,302.5 C 414.5,303.167 414.5,303.833 414.5,304.5C 413.662,304.842 413.328,305.508 413.5,306.5C 412.833,307.167 412.167,307.833 411.5,308.5C 411.461,305.911 412.461,303.911 414.5,302.5 Z"/></g>
<g><path style="opacity:0.004" fill="#949494" d="M 414.5,304.5 C 414.833,304.5 415.167,304.5 415.5,304.5C 415.672,305.492 415.338,306.158 414.5,306.5C 414.5,305.833 414.5,305.167 414.5,304.5 Z"/></g>
<g><path style="opacity:0.008" fill="#797979" d="M 413.5,306.5 C 413.833,306.5 414.167,306.5 414.5,306.5C 414.167,309.167 413.833,309.167 413.5,306.5 Z"/></g>
<g><path style="opacity:0.006" fill="#000000" d="M 36.5,308.5 C 36.631,309.239 36.4643,309.906 36,310.5C 35.3083,309.563 35.475,308.897 36.5,308.5 Z"/></g>
<g><path style="opacity:0.008" fill="#9e9f9e" d="M 412.5,309.5 C 413.833,310.167 413.833,310.167 412.5,309.5 Z"/></g>
<g><path style="opacity:0.008" fill="#000000" d="M 37.5,311.5 C 36.8333,312.167 36.8333,312.167 37.5,311.5 Z"/></g>
<g><path style="opacity:0.004" fill="#b4b4b4" d="M 411.5,311.5 C 412.833,312.167 412.833,312.833 411.5,313.5C 411.5,312.833 411.5,312.167 411.5,311.5 Z"/></g>
<g><path style="opacity:0.008" fill="#000000" d="M 38.5,313.5 C 37.8333,314.167 37.8333,314.167 38.5,313.5 Z"/></g>
<g><path style="opacity:0.004" fill="#b5b5b5" d="M 410.5,313.5 C 410.833,313.5 411.167,313.5 411.5,313.5C 411.672,314.492 411.338,315.158 410.5,315.5C 410.5,314.833 410.5,314.167 410.5,313.5 Z"/></g>
<g><path style="opacity:0.008" fill="#000000" d="M 39.5,315.5 C 38.8333,316.167 38.8333,316.167 39.5,315.5 Z"/></g>
<g><path style="opacity:0.38" fill="#a6a6a6" d="M 411.5,308.5 C 411.5,309.5 411.5,310.5 411.5,311.5C 410.662,311.842 410.328,312.508 410.5,313.5C 409.662,313.842 409.328,314.508 409.5,315.5C 408.662,315.842 408.328,316.508 408.5,317.5C 407.662,317.842 407.328,318.508 407.5,319.5C 406.662,319.842 406.328,320.508 406.5,321.5C 406.167,321.5 405.833,321.5 405.5,321.5C 406.71,316.749 408.71,312.416 411.5,308.5 Z"/></g>
<g><path style="opacity:0.998" fill="#a7a7a7" d="M 403.5,186.5 C 415.077,248.601 399.91,303.267 358,350.5C 305.398,402.195 243.232,418.695 171.5,400C 113.648,381.101 73.9817,343.268 52.5,286.5C 53.609,286.443 54.609,286.11 55.5,285.5C 56.031,288.237 56.8644,290.904 58,293.5C 60.9097,299.654 64.0764,305.654 67.5,311.5C 98.4885,365.529 145.155,396.363 207.5,404C 267.312,407.514 317.812,387.68 359,344.5C 364.77,337.904 369.937,330.904 374.5,323.5C 398.527,286.057 408.194,245.057 403.5,200.5C 403.29,196.481 403.29,191.814 403.5,186.5 Z"/></g>
<g><path style="opacity:1" fill="#dddcdc" d="M 374.5,323.5 C 369.937,330.904 364.77,337.904 359,344.5C 317.812,387.68 267.312,407.514 207.5,404C 145.155,396.363 98.4885,365.529 67.5,311.5C 68.1174,311.389 68.6174,311.056 69,310.5C 78.7778,323.944 89.9445,336.111 102.5,347C 161.841,388.042 225.508,396.709 293.5,373C 309.245,366.298 324.912,358.631 340.5,350C 351.755,342.41 362.088,333.744 371.5,324C 372.448,323.517 373.448,323.351 374.5,323.5 Z"/></g>
<g><path style="opacity:0.004" fill="#bbbbbb" d="M 409.5,315.5 C 409.833,315.5 410.167,315.5 410.5,315.5C 410.672,316.492 410.338,317.158 409.5,317.5C 409.5,316.833 409.5,316.167 409.5,315.5 Z"/></g>
<g><path style="opacity:0.008" fill="#000000" d="M 40.5,317.5 C 39.8333,318.167 39.8333,318.167 40.5,317.5 Z"/></g>
<g><path style="opacity:0.004" fill="#bcbcbc" d="M 408.5,317.5 C 408.833,317.5 409.167,317.5 409.5,317.5C 409.672,318.492 409.338,319.158 408.5,319.5C 408.5,318.833 408.5,318.167 408.5,317.5 Z"/></g>
<g><path style="opacity:0.008" fill="#000000" d="M 41.5,319.5 C 40.8333,320.167 40.8333,320.167 41.5,319.5 Z"/></g>
<g><path style="opacity:0.008" fill="#6d6f6e" d="M 407.5,319.5 C 407.833,319.5 408.167,319.5 408.5,319.5C 408.315,320.17 407.981,320.17 407.5,319.5 Z"/></g>
<g><path style="opacity:0.008" fill="#000000" d="M 42.5,321.5 C 41.8333,322.167 41.8333,322.167 42.5,321.5 Z"/></g>
<g><path style="opacity:0.008" fill="#777877" d="M 406.5,321.5 C 407.833,322.167 407.833,322.167 406.5,321.5 Z"/></g>
<g><path style="opacity:0.008" fill="#000000" d="M 42.5,323.5 C 43.8333,324.167 43.8333,324.167 42.5,323.5 Z"/></g>
<g><path style="opacity:0.231" fill="#b6b6b6" d="M 405.5,321.5 C 405.5,322.167 405.5,322.833 405.5,323.5C 404.833,323.5 404.5,323.833 404.5,324.5C 404.167,324.5 403.833,324.5 403.5,324.5C 403.427,322.973 404.094,321.973 405.5,321.5 Z"/></g>
<g><path style="opacity:0.008" fill="#9e9e9d" d="M 405.5,323.5 C 406.833,324.167 406.833,324.167 405.5,323.5 Z"/></g>
<g><path style="opacity:0.008" fill="#797979" d="M 404.5,324.5 C 404.833,324.5 405.167,324.5 405.5,324.5C 405.672,325.492 405.338,326.158 404.5,326.5C 404.5,325.833 404.5,325.167 404.5,324.5 Z"/></g>
<g><path style="opacity:0.008" fill="#000000" d="M 45.5,326.5 C 44.8333,327.167 44.8333,327.167 45.5,326.5 Z"/></g>
<g><path style="opacity:0.004" fill="#8e8e8e" d="M 403.5,326.5 C 403.833,326.5 404.167,326.5 404.5,326.5C 404.672,327.492 404.338,328.158 403.5,328.5C 403.5,327.833 403.5,327.167 403.5,326.5 Z"/></g>
<g><path style="opacity:0.008" fill="#000000" d="M 46.5,328.5 C 45.8333,329.167 45.8333,329.167 46.5,328.5 Z"/></g>
<g><path style="opacity:0.008" fill="#606160" d="M 402.5,328.5 C 402.833,328.5 403.167,328.5 403.5,328.5C 403.315,329.17 402.981,329.17 402.5,328.5 Z"/></g>
<g><path style="opacity:0.008" fill="#000000" d="M 47.5,331.5 C 46.8333,330.167 46.8333,330.167 47.5,331.5 Z"/></g>
<g><path style="opacity:0.008" fill="#8c8d8c" d="M 401.5,330.5 C 402.833,331.167 402.833,331.167 401.5,330.5 Z"/></g>
<g><path style="opacity:0.008" fill="#000000" d="M 47.5,331.5 C 47.8333,331.5 48.1667,331.5 48.5,331.5C 48.3147,332.17 47.9813,332.17 47.5,331.5 Z"/></g>
<g><path style="opacity:0.004" fill="#7b7b7a" d="M 400.5,331.5 C 400.833,331.5 401.167,331.5 401.5,331.5C 401.672,332.492 401.338,333.158 400.5,333.5C 400.5,332.833 400.5,332.167 400.5,331.5 Z"/></g>
<g><path style="opacity:0.008" fill="#676867" d="M 399.5,333.5 C 399.833,333.5 400.167,333.5 400.5,333.5C 400.315,334.17 399.981,334.17 399.5,333.5 Z"/></g>
<g><path style="opacity:0.004" fill="#5a5a59" d="M 398.5,334.5 C 398.833,334.5 399.167,334.5 399.5,334.5C 399.672,335.492 399.338,336.158 398.5,336.5C 398.5,335.833 398.5,335.167 398.5,334.5 Z"/></g>
<g><path style="opacity:1" fill="#6e6e6e" d="M 113.5,335.5 C 125.989,336.495 138.656,336.829 151.5,336.5C 138.661,337.825 125.661,337.825 112.5,336.5C 112.624,335.893 112.957,335.56 113.5,335.5 Z"/></g>
<g><path style="opacity:1" fill="#3b3b3b" d="M 191.5,335.5 C 203.989,336.495 216.656,336.829 229.5,336.5C 216.661,337.825 203.661,337.825 190.5,336.5C 190.624,335.893 190.957,335.56 191.5,335.5 Z"/></g>
<g><path style="opacity:1" fill="#545454" d="M 335.5,335.5 C 336.043,335.56 336.376,335.893 336.5,336.5C 324.673,337.824 313.007,337.824 301.5,336.5C 313.012,336.828 324.346,336.495 335.5,335.5 Z"/></g>
<g><path style="opacity:0.012" fill="#191b1b" d="M 397.5,336.5 C 397.833,336.5 398.167,336.5 398.5,336.5C 398.315,337.17 397.981,337.17 397.5,336.5 Z"/></g>
<g><path style="opacity:0.008" fill="#070807" d="M 396.5,338.5 C 397.833,339.167 397.833,339.167 396.5,338.5 Z"/></g>
<g><path style="opacity:0.008" fill="#010201" d="M 395.5,339.5 C 395.833,339.5 396.167,339.5 396.5,339.5C 396.315,340.17 395.981,340.17 395.5,339.5 Z"/></g>
<g><path style="opacity:0.004" fill="#000000" d="M 394.5,341.5 C 395.833,342.167 395.833,342.167 394.5,341.5 Z"/></g>
<g><path style="opacity:0.012" fill="#000000" d="M 393.5,342.5 C 393.833,342.5 394.167,342.5 394.5,342.5C 394.315,343.17 393.981,343.17 393.5,342.5 Z"/></g>
<g><path style="opacity:0.008" fill="#000000" d="M 56.5,343.5 C 55.8333,344.167 55.8333,344.167 56.5,343.5 Z"/></g>
<g><path style="opacity:0.006" fill="#000000" d="M 392.5,343.5 C 392.833,343.5 393.167,343.5 393.5,343.5C 393.672,344.492 393.338,345.158 392.5,345.5C 392.5,344.833 392.5,344.167 392.5,343.5 Z"/></g>
<g><path style="opacity:0.008" fill="#000000" d="M 391.5,345.5 C 391.833,345.5 392.167,345.5 392.5,345.5C 392.315,346.17 391.981,346.17 391.5,345.5 Z"/></g>
<g><path style="opacity:0.008" fill="#000000" d="M 390.5,346.5 C 390.833,346.5 391.167,346.5 391.5,346.5C 391.315,347.17 390.981,347.17 390.5,346.5 Z"/></g>
<g><path style="opacity:0.004" fill="#000000" d="M 389.5,348.5 C 390.833,349.167 390.833,349.167 389.5,348.5 Z"/></g>
<g><path style="opacity:0.008" fill="#000000" d="M 388.5,349.5 C 388.833,349.5 389.167,349.5 389.5,349.5C 389.315,350.17 388.981,350.17 388.5,349.5 Z"/></g>
<g><path style="opacity:0.012" fill="#000000" d="M 387.5,350.5 C 387.833,350.5 388.167,350.5 388.5,350.5C 388.315,351.17 387.981,351.17 387.5,350.5 Z"/></g>
<g><path style="opacity:0.008" fill="#000000" d="M 62.5,351.5 C 61.8333,352.167 61.8333,352.167 62.5,351.5 Z"/></g>
<g><path style="opacity:0.006" fill="#000000" d="M 386.5,351.5 C 386.833,351.5 387.167,351.5 387.5,351.5C 387.672,352.492 387.338,353.158 386.5,353.5C 386.5,352.833 386.5,352.167 386.5,351.5 Z"/></g>
<g><path style="opacity:0.004" fill="#000000" d="M 62.5,353.5 C 63.8333,354.167 63.8333,354.167 62.5,353.5 Z"/></g>
<g><path style="opacity:0.008" fill="#000000" d="M 385.5,353.5 C 385.833,353.5 386.167,353.5 386.5,353.5C 386.315,354.17 385.981,354.17 385.5,353.5 Z"/></g>
<g><path style="opacity:0.012" fill="#000000" d="M 384.5,354.5 C 384.833,354.5 385.167,354.5 385.5,354.5C 385.315,355.17 384.981,355.17 384.5,354.5 Z"/></g>
<g><path style="opacity:0.012" fill="#000000" d="M 383.5,355.5 C 383.833,355.5 384.167,355.5 384.5,355.5C 384.315,356.17 383.981,356.17 383.5,355.5 Z"/></g>
<g><path style="opacity:0.008" fill="#000000" d="M 382.5,356.5 C 382.833,356.5 383.167,356.5 383.5,356.5C 383.315,357.17 382.981,357.17 382.5,356.5 Z"/></g>
<g><path style="opacity:0.008" fill="#000000" d="M 67.5,357.5 C 66.8333,358.167 66.8333,358.167 67.5,357.5 Z"/></g>
<g><path style="opacity:0.004" fill="#000000" d="M 381.5,358.5 C 382.833,359.167 382.833,359.167 381.5,358.5 Z"/></g>
<g><path style="opacity:0.004" fill="#000000" d="M 67.5,359.5 C 68.8333,360.167 68.8333,360.167 67.5,359.5 Z"/></g>
<g><path style="opacity:0.008" fill="#000000" d="M 381.5,359.5 C 380.833,360.167 380.833,360.167 381.5,359.5 Z"/></g>
<g><path style="opacity:0.008" fill="#000000" d="M 379.5,360.5 C 379.833,360.5 380.167,360.5 380.5,360.5C 380.315,361.17 379.981,361.17 379.5,360.5 Z"/></g>
<g><path style="opacity:0.012" fill="#000000" d="M 378.5,361.5 C 378.833,361.5 379.167,361.5 379.5,361.5C 379.315,362.17 378.981,362.17 378.5,361.5 Z"/></g>
<g><path style="opacity:0.012" fill="#000000" d="M 377.5,362.5 C 377.833,362.5 378.167,362.5 378.5,362.5C 378.315,363.17 377.981,363.17 377.5,362.5 Z"/></g>
<g><path style="opacity:0.008" fill="#000000" d="M 376.5,363.5 C 376.833,363.5 377.167,363.5 377.5,363.5C 377.315,364.17 376.981,364.17 376.5,363.5 Z"/></g>
<g><path style="opacity:0.008" fill="#000000" d="M 375.5,364.5 C 375.833,364.5 376.167,364.5 376.5,364.5C 376.315,365.17 375.981,365.17 375.5,364.5 Z"/></g>
<g><path style="opacity:0.008" fill="#000000" d="M 374.5,365.5 C 374.833,365.5 375.167,365.5 375.5,365.5C 375.315,366.17 374.981,366.17 374.5,365.5 Z"/></g>
<g><path style="opacity:0.008" fill="#000000" d="M 373.5,366.5 C 373.833,366.5 374.167,366.5 374.5,366.5C 374.315,367.17 373.981,367.17 373.5,366.5 Z"/></g>
<g><path style="opacity:0.004" fill="#000000" d="M 372.5,367.5 C 372.833,367.5 373.167,367.5 373.5,367.5C 373.315,368.17 372.981,368.17 372.5,367.5 Z"/></g>
<g><path style="opacity:0.004" fill="#000000" d="M 367.5,372.5 C 368.833,373.167 368.833,373.167 367.5,372.5 Z"/></g>
<g><path style="opacity:0.008" fill="#000000" d="M 366.5,373.5 C 366.833,373.5 367.167,373.5 367.5,373.5C 367.315,374.17 366.981,374.17 366.5,373.5 Z"/></g>
<g><path style="opacity:0.008" fill="#000000" d="M 365.5,374.5 C 365.833,374.5 366.167,374.5 366.5,374.5C 366.315,375.17 365.981,375.17 365.5,374.5 Z"/></g>
<g><path style="opacity:0.008" fill="#000000" d="M 364.5,375.5 C 364.833,375.5 365.167,375.5 365.5,375.5C 365.315,376.17 364.981,376.17 364.5,375.5 Z"/></g>
<g><path style="opacity:0.008" fill="#000000" d="M 363.5,376.5 C 363.833,376.5 364.167,376.5 364.5,376.5C 364.315,377.17 363.981,377.17 363.5,376.5 Z"/></g>
<g><path style="opacity:0.012" fill="#000000" d="M 362.5,377.5 C 362.833,377.5 363.167,377.5 363.5,377.5C 363.315,378.17 362.981,378.17 362.5,377.5 Z"/></g>
<g><path style="opacity:0.012" fill="#000000" d="M 361.5,378.5 C 361.833,378.5 362.167,378.5 362.5,378.5C 362.315,379.17 361.981,379.17 361.5,378.5 Z"/></g>
<g><path style="opacity:0.008" fill="#000000" d="M 88.5,379.5 C 88.5,379.833 88.5,380.167 88.5,380.5C 87.8299,380.019 87.8299,379.685 88.5,379.5 Z"/></g>
<g><path style="opacity:0.008" fill="#000000" d="M 360.5,379.5 C 360.833,379.5 361.167,379.5 361.5,379.5C 361.315,380.17 360.981,380.17 360.5,379.5 Z"/></g>
<g><path style="opacity:0.004" fill="#000000" d="M 88.5,380.5 C 89.8333,381.167 89.8333,381.167 88.5,380.5 Z"/></g>
<g><path style="opacity:0.008" fill="#000000" d="M 360.5,380.5 C 359.833,381.167 359.833,381.167 360.5,380.5 Z"/></g>
<g><path style="opacity:0.004" fill="#000000" d="M 359.5,381.5 C 358.833,382.167 358.833,382.167 359.5,381.5 Z"/></g>
<g><path style="opacity:0.008" fill="#000000" d="M 356.5,382.5 C 357.833,383.167 357.833,383.167 356.5,382.5 Z"/></g>
<g><path style="opacity:0.012" fill="#000000" d="M 355.5,383.5 C 355.833,383.5 356.167,383.5 356.5,383.5C 356.315,384.17 355.981,384.17 355.5,383.5 Z"/></g>
<g><path style="opacity:0.008" fill="#000000" d="M 94.5,384.5 C 94.5,384.833 94.5,385.167 94.5,385.5C 93.8299,385.019 93.8299,384.685 94.5,384.5 Z"/></g>
<g><path style="opacity:0.004" fill="#000000" d="M 94.5,385.5 C 95.8333,386.167 95.8333,386.167 94.5,385.5 Z"/></g>
<g><path style="opacity:0.012" fill="#000000" d="M 350.5,387.5 C 351.833,388.167 351.833,388.167 350.5,387.5 Z"/></g>
<g><path style="opacity:0.008" fill="#000000" d="M 349.5,388.5 C 349.833,388.5 350.167,388.5 350.5,388.5C 350.315,389.17 349.981,389.17 349.5,388.5 Z"/></g>
<g><path style="opacity:0.004" fill="#000000" d="M 349.5,389.5 C 348.833,390.167 348.833,390.167 349.5,389.5 Z"/></g>
<g><path style="opacity:0.008" fill="#000000" d="M 346.5,390.5 C 347.833,391.167 347.833,391.167 346.5,390.5 Z"/></g>
<g><path style="opacity:0.008" fill="#000000" d="M 103.5,391.5 C 102.833,392.167 102.833,392.167 103.5,391.5 Z"/></g>
<g><path style="opacity:0.008" fill="#000000" d="M 345.5,391.5 C 345.833,391.5 346.167,391.5 346.5,391.5C 346.315,392.17 345.981,392.17 345.5,391.5 Z"/></g>
<g><path style="opacity:0.006" fill="#000000" d="M 343.5,393.5 C 343.5,393.167 343.5,392.833 343.5,392.5C 344.167,392.5 344.833,392.5 345.5,392.5C 345.158,393.338 344.492,393.672 343.5,393.5 Z"/></g>
<g><path style="opacity:0.012" fill="#000000" d="M 342.5,393.5 C 342.833,393.5 343.167,393.5 343.5,393.5C 343.315,394.17 342.981,394.17 342.5,393.5 Z"/></g>
<g><path style="opacity:0.004" fill="#000000" d="M 342.5,394.5 C 341.833,395.167 341.833,395.167 342.5,394.5 Z"/></g>
<g><path style="opacity:0.012" fill="#000100" d="M 109.5,395.5 C 109.5,395.833 109.5,396.167 109.5,396.5C 108.83,396.019 108.83,395.685 109.5,395.5 Z"/></g>
<g><path style="opacity:0.008" fill="#000000" d="M 339.5,395.5 C 340.833,396.167 340.833,396.167 339.5,395.5 Z"/></g>
<g><path style="opacity:0.004" fill="#010201" d="M 109.5,396.5 C 110.833,397.167 110.833,397.167 109.5,396.5 Z"/></g>
<g><path style="opacity:0.008" fill="#000000" d="M 339.5,396.5 C 338.833,397.167 338.833,397.167 339.5,396.5 Z"/></g>
<g><path style="opacity:0.012" fill="#000000" d="M 336.5,397.5 C 337.833,398.167 337.833,398.167 336.5,397.5 Z"/></g>
<g><path style="opacity:0.004" fill="#000000" d="M 334.5,399.5 C 334.5,399.167 334.5,398.833 334.5,398.5C 335.167,398.5 335.833,398.5 336.5,398.5C 336.158,399.338 335.492,399.672 334.5,399.5 Z"/></g>
<g><path style="opacity:0.008" fill="#000000" d="M 115.5,399.5 C 114.833,400.167 114.833,400.167 115.5,399.5 Z"/></g>
<g><path style="opacity:0.008" fill="#000000" d="M 333.5,399.5 C 333.833,399.5 334.167,399.5 334.5,399.5C 334.315,400.17 333.981,400.17 333.5,399.5 Z"/></g>
<g><path style="opacity:0.008" fill="#000100" d="M 117.5,400.5 C 117.5,400.833 117.5,401.167 117.5,401.5C 116.83,401.019 116.83,400.685 117.5,400.5 Z"/></g>
<g><path style="opacity:0.004" fill="#020302" d="M 331.5,401.5 C 331.5,401.167 331.5,400.833 331.5,400.5C 332.167,400.5 332.833,400.5 333.5,400.5C 333.158,401.338 332.492,401.672 331.5,401.5 Z"/></g>
<g><path style="opacity:0.008" fill="#010201" d="M 117.5,401.5 C 118.833,402.167 118.833,402.167 117.5,401.5 Z"/></g>
<g><path style="opacity:0.008" fill="#000000" d="M 330.5,401.5 C 330.833,401.5 331.167,401.5 331.5,401.5C 331.315,402.17 330.981,402.17 330.5,401.5 Z"/></g>
<g><path style="opacity:0.012" fill="#040504" d="M 328.5,402.5 C 329.833,403.167 329.833,403.167 328.5,402.5 Z"/></g>
<g><path style="opacity:0.004" fill="#0c0c0c" d="M 326.5,404.5 C 326.5,404.167 326.5,403.833 326.5,403.5C 327.167,403.5 327.833,403.5 328.5,403.5C 328.158,404.338 327.492,404.672 326.5,404.5 Z"/></g>
<g><path style="opacity:0.004" fill="#000000" d="M 124.5,404.5 C 124.5,404.833 124.5,405.167 124.5,405.5C 121.833,405.167 121.833,404.833 124.5,404.5 Z"/></g>
<g><path style="opacity:0.008" fill="#2c2c2c" d="M 324.5,405.5 C 324.5,405.167 324.5,404.833 324.5,404.5C 325.167,404.5 325.833,404.5 326.5,404.5C 326.158,405.338 325.492,405.672 324.5,405.5 Z"/></g>
<g><path style="opacity:0.008" fill="#000000" d="M 124.5,405.5 C 125.833,406.167 125.833,406.167 124.5,405.5 Z"/></g>
<g><path style="opacity:0.008" fill="#060706" d="M 323.5,405.5 C 323.833,405.5 324.167,405.5 324.5,405.5C 324.315,406.17 323.981,406.17 323.5,405.5 Z"/></g>
<g><path style="opacity:0.008" fill="#000000" d="M 127.5,406.5 C 126.833,407.167 126.833,407.167 127.5,406.5 Z"/></g>
<g><path style="opacity:0.008" fill="#1a1b1a" d="M 321.5,406.5 C 322.833,407.167 322.833,407.167 321.5,406.5 Z"/></g>
<g><path style="opacity:0.008" fill="#000000" d="M 129.5,407.5 C 128.833,408.167 128.833,408.167 129.5,407.5 Z"/></g>
<g><path style="opacity:0.004" fill="#0f0f0f" d="M 319.5,408.5 C 319.5,408.167 319.5,407.833 319.5,407.5C 320.167,407.5 320.833,407.5 321.5,407.5C 321.158,408.338 320.492,408.672 319.5,408.5 Z"/></g>
<g><path style="opacity:0.008" fill="#000000" d="M 131.5,408.5 C 130.833,409.167 130.833,409.167 131.5,408.5 Z"/></g>
<g><path style="opacity:0.004" fill="#121212" d="M 317.5,409.5 C 317.5,409.167 317.5,408.833 317.5,408.5C 318.167,408.5 318.833,408.5 319.5,408.5C 319.158,409.338 318.492,409.672 317.5,409.5 Z"/></g>
<g><path style="opacity:0.008" fill="#000000" d="M 133.5,409.5 C 132.833,410.167 132.833,410.167 133.5,409.5 Z"/></g>
<g><path style="opacity:0.004" fill="#151515" d="M 315.5,410.5 C 315.5,410.167 315.5,409.833 315.5,409.5C 316.167,409.5 316.833,409.5 317.5,409.5C 317.158,410.338 316.492,410.672 315.5,410.5 Z"/></g>
<g><path style="opacity:0.008" fill="#000000" d="M 135.5,410.5 C 134.833,411.167 134.833,411.167 135.5,410.5 Z"/></g>
<g><path style="opacity:0.004" fill="#171717" d="M 313.5,411.5 C 313.5,411.167 313.5,410.833 313.5,410.5C 314.167,410.5 314.833,410.5 315.5,410.5C 315.158,411.338 314.492,411.672 313.5,411.5 Z"/></g>
<g><path style="opacity:0.008" fill="#000000" d="M 137.5,411.5 C 136.833,412.167 136.833,412.167 137.5,411.5 Z"/></g>
<g><path style="opacity:0.004" fill="#191918" d="M 311.5,411.5 C 312.167,411.5 312.833,411.5 313.5,411.5C 312.833,412.833 312.167,412.833 311.5,411.5 Z"/></g>
<g><path style="opacity:0.008" fill="#000000" d="M 138.5,412.5 C 139.833,413.167 139.833,413.167 138.5,412.5 Z"/></g>
<g><path style="opacity:0.008" fill="#292b29" d="M 309.5,412.5 C 310.833,413.167 310.833,413.167 309.5,412.5 Z"/></g>
<g><path style="opacity:0.008" fill="#585858" d="M 306.5,414.5 C 306.5,414.167 306.5,413.833 306.5,413.5C 309.167,413.833 309.167,414.167 306.5,414.5 Z"/></g>
<g><path style="opacity:0.004" fill="#323232" d="M 304.5,415.5 C 304.5,415.167 304.5,414.833 304.5,414.5C 305.167,414.5 305.833,414.5 306.5,414.5C 306.158,415.338 305.492,415.672 304.5,415.5 Z"/></g>
<g><path style="opacity:0.008" fill="#080808" d="M 146.5,415.5 C 146.103,416.525 145.437,416.692 144.5,416C 145.094,415.536 145.761,415.369 146.5,415.5 Z"/></g>
<g><path style="opacity:0.004" fill="#252524" d="M 302.5,415.5 C 303.167,415.5 303.833,415.5 304.5,415.5C 303.833,416.833 303.167,416.833 302.5,415.5 Z"/></g>
<g><path style="opacity:0.008" fill="#272727" d="M 149.5,416.5 C 149.5,416.833 149.5,417.167 149.5,417.5C 146.833,417.167 146.833,416.833 149.5,416.5 Z"/></g>
<g><path style="opacity:0.008" fill="#4c4c4c" d="M 299.5,417.5 C 299.5,417.167 299.5,416.833 299.5,416.5C 302.167,416.833 302.167,417.167 299.5,417.5 Z"/></g>
<g><path style="opacity:0.008" fill="#0d0d0d" d="M 149.5,417.5 C 150.239,417.369 150.906,417.536 151.5,418C 150.563,418.692 149.897,418.525 149.5,417.5 Z"/></g>
<g><path style="opacity:0.004" fill="#222222" d="M 299.5,417.5 C 299.103,418.525 298.437,418.692 297.5,418C 298.094,417.536 298.761,417.369 299.5,417.5 Z"/></g>
<g><path style="opacity:0.008" fill="#272727" d="M 154.5,418.5 C 154.103,419.525 153.437,419.692 152.5,419C 153.094,418.536 153.761,418.369 154.5,418.5 Z"/></g>
<g><path style="opacity:0.004" fill="#444444" d="M 294.5,418.5 C 295.239,418.369 295.906,418.536 296.5,419C 295.563,419.692 294.897,419.525 294.5,418.5 Z"/></g>
<g><path style="opacity:0.008" fill="#3e3d3d" d="M 157.5,419.5 C 157.103,420.525 156.437,420.692 155.5,420C 156.094,419.536 156.761,419.369 157.5,419.5 Z"/></g>
<g><path style="opacity:0.008" fill="#5f5f5f" d="M 291.5,419.5 C 292.239,419.369 292.906,419.536 293.5,420C 292.563,420.692 291.897,420.525 291.5,419.5 Z"/></g>
<g><path style="opacity:0.008" fill="#454545" d="M 160.5,420.5 C 160.103,421.525 159.437,421.692 158.5,421C 159.094,420.536 159.761,420.369 160.5,420.5 Z"/></g>
<g><path style="opacity:0.008" fill="#626162" d="M 288.5,420.5 C 289.239,420.369 289.906,420.536 290.5,421C 289.563,421.692 288.897,421.525 288.5,420.5 Z"/></g>
<g><path style="opacity:0.008" fill="#464646" d="M 163.5,421.5 C 163.103,422.525 162.437,422.692 161.5,422C 162.094,421.536 162.761,421.369 163.5,421.5 Z"/></g>
<g><path style="opacity:0.475" fill="#323232" d="M 182.5,424.5 C 182.5,424.833 182.5,425.167 182.5,425.5C 181.167,425.5 179.833,425.5 178.5,425.5C 176.095,424.232 173.428,423.565 170.5,423.5C 168.485,422.076 166.152,421.41 163.5,421.5C 162.791,420.596 161.791,420.263 160.5,420.5C 159.791,419.596 158.791,419.263 157.5,419.5C 156.791,418.596 155.791,418.263 154.5,418.5C 153.22,417.069 151.553,416.402 149.5,416.5C 148.791,415.596 147.791,415.263 146.5,415.5C 144.5,414.167 142.5,412.833 140.5,411.5C 140.735,410.903 141.235,410.57 142,410.5C 155.294,416.097 168.794,420.763 182.5,424.5 Z"/></g>
<g><path style="opacity:0.008" fill="#5b5c5b" d="M 285.5,421.5 C 286.239,421.369 286.906,421.536 287.5,422C 286.563,422.692 285.897,422.525 285.5,421.5 Z"/></g>
<g><path style="opacity:0.008" fill="#404040" d="M 164.5,423.5 C 164.897,422.475 165.563,422.308 166.5,423C 165.906,423.464 165.239,423.631 164.5,423.5 Z"/></g>
<g><path style="opacity:0.008" fill="#5e5e5e" d="M 282.5,423.5 C 282.897,422.475 283.563,422.308 284.5,423C 283.906,423.464 283.239,423.631 282.5,423.5 Z"/></g>
<g><path style="opacity:0.008" fill="#3e3d3d" d="M 170.5,423.5 C 169.749,424.573 168.749,424.74 167.5,424C 168.448,423.517 169.448,423.351 170.5,423.5 Z"/></g>
<g><path style="opacity:0.008" fill="#636363" d="M 278.5,423.5 C 279.552,423.351 280.552,423.517 281.5,424C 280.251,424.74 279.251,424.573 278.5,423.5 Z"/></g>
<g><path style="opacity:0.008" fill="#393939" d="M 171.5,425.5 C 171.897,424.475 172.563,424.308 173.5,425C 172.906,425.464 172.239,425.631 171.5,425.5 Z"/></g>
<g><path style="opacity:0.749" fill="#1c1b1b" d="M 115.5,392.5 C 115.56,391.957 115.893,391.624 116.5,391.5C 171.195,425.227 229.195,432.227 290.5,412.5C 290.64,414.124 289.973,415.29 288.5,416C 240.789,430.853 194.123,429.52 148.5,412C 140.91,408.872 133.577,405.205 126.5,401C 126.833,400.667 127.167,400.333 127.5,400C 126.216,399.316 125.049,399.483 124,400.5C 122.441,396.611 119.607,393.944 115.5,392.5 Z"/></g>
<g><path style="opacity:0.008" fill="#504f50" d="M 275.5,425.5 C 275.897,424.475 276.563,424.308 277.5,425C 276.906,425.464 276.239,425.631 275.5,425.5 Z"/></g>
<g><path style="opacity:0.008" fill="#626362" d="M 178.5,425.5 C 177.749,426.573 176.749,426.74 175.5,426C 176.448,425.517 177.448,425.351 178.5,425.5 Z"/></g>
<g><path style="opacity:0.008" fill="#807f80" d="M 270.5,425.5 C 271.552,425.351 272.552,425.517 273.5,426C 272.251,426.74 271.251,426.573 270.5,425.5 Z"/></g>
<g><path style="opacity:0.008" fill="#494948" d="M 179.5,427.5 C 180.251,426.427 181.251,426.26 182.5,427C 181.552,427.483 180.552,427.649 179.5,427.5 Z"/></g>
<g><path style="opacity:0.698" fill="#474747" d="M 328.5,401.5 C 328.5,401.833 328.5,402.167 328.5,402.5C 327.508,402.328 326.842,402.662 326.5,403.5C 325.508,403.328 324.842,403.662 324.5,404.5C 323.833,404.5 323.5,404.833 323.5,405.5C 322.508,405.328 321.842,405.662 321.5,406.5C 320.508,406.328 319.842,406.662 319.5,407.5C 318.508,407.328 317.842,407.662 317.5,408.5C 316.508,408.328 315.842,408.662 315.5,409.5C 314.508,409.328 313.842,409.662 313.5,410.5C 312.508,410.328 311.842,410.662 311.5,411.5C 309.447,411.402 307.78,412.069 306.5,413.5C 305.508,413.328 304.842,413.662 304.5,414.5C 303.508,414.328 302.842,414.662 302.5,415.5C 301.209,415.263 300.209,415.596 299.5,416.5C 297.447,416.402 295.78,417.069 294.5,418.5C 293.209,418.263 292.209,418.596 291.5,419.5C 290.209,419.263 289.209,419.596 288.5,420.5C 287.209,420.263 286.209,420.596 285.5,421.5C 282.848,421.41 280.515,422.076 278.5,423.5C 275.572,423.565 272.905,424.232 270.5,425.5C 243.287,431.161 215.953,431.827 188.5,427.5C 186.626,426.715 184.626,426.048 182.5,425.5C 182.5,425.167 182.5,424.833 182.5,424.5C 234.287,433.869 282.954,425.536 328.5,399.5C 329.463,399.97 329.463,400.637 328.5,401.5 Z"/></g>
<g><path style="opacity:0.008" fill="#6b6a6a" d="M 266.5,427.5 C 267.251,426.427 268.251,426.26 269.5,427C 268.552,427.483 267.552,427.649 266.5,427.5 Z"/></g>
<g><path style="opacity:0.008" fill="#6e6e6e" d="M 188.5,427.5 C 187.054,428.613 185.387,428.78 183.5,428C 185.134,427.506 186.801,427.34 188.5,427.5 Z"/></g>
<g><path style="opacity:0.008" fill="#626262" d="M 261.5,428.5 C 262.601,427.402 263.934,427.235 265.5,428C 264.207,428.49 262.873,428.657 261.5,428.5 Z"/></g>
<g><path style="opacity:0.01" fill="#565655" d="M 189.5,429.5 C 190.601,428.402 191.934,428.235 193.5,429C 192.207,429.49 190.873,429.657 189.5,429.5 Z"/></g>
<g><path style="opacity:0.008" fill="#6f6f6e" d="M 255.5,429.5 C 256.601,428.402 257.934,428.235 259.5,429C 258.207,429.49 256.873,429.657 255.5,429.5 Z"/></g>
<g><path style="opacity:0.004" fill="#686868" d="M 195.5,430.5 C 197.288,429.378 199.288,429.211 201.5,430C 199.527,430.495 197.527,430.662 195.5,430.5 Z"/></g>
<g><path style="opacity:0.008" fill="#727272" d="M 247.5,430.5 C 249.288,429.378 251.288,429.211 253.5,430C 251.527,430.495 249.527,430.662 247.5,430.5 Z"/></g>
<g><path style="opacity:0.004" fill="#828282" d="M 203.5,431.5 C 206.64,430.359 209.973,430.192 213.5,431C 210.183,431.498 206.85,431.665 203.5,431.5 Z"/></g>
<g><path style="opacity:0.008" fill="#6c6b6b" d="M 235.5,431.5 C 238.64,430.359 241.973,430.192 245.5,431C 242.183,431.498 238.85,431.665 235.5,431.5 Z"/></g>
<g><path style="opacity:0.004" fill="#2d2b2c" d="M 219.5,432.5 C 222.64,431.359 225.973,431.192 229.5,432C 226.183,432.498 222.85,432.665 219.5,432.5 Z"/></g>
</svg>
